<?xml version="1.0" encoding="utf-8"?>
<!-- Generator: Adobe Illustrator 16.0.0, SVG Export Plug-In . SVG Version: 6.00 Build 0)  -->
<!DOCTYPE svg PUBLIC "-//W3C//DTD SVG 1.1//EN" "http://www.w3.org/Graphics/SVG/1.1/DTD/svg11.dtd">
<svg version="1.1" id="Layer_1" xmlns="http://www.w3.org/2000/svg" xmlns:xlink="http://www.w3.org/1999/xlink" x="0px" y="0px"
	 width="96px" height="96px" viewBox="0 0 96 96" enable-background="new 0 0 96 96" xml:space="preserve">
<g id="LoveBots">
	<polyline fill="#D5E053" points="43.463,3.595 44.474,3.595 44.474,7.979 43.463,7.979 	"/>
	<g>
		<g>
			<g>
				<rect x="36.861" y="11.744" fill="#57B7DF" width="14.215" height="19.976"/>
				<polygon fill="#57B7DF" points="51.076,25.607 46.161,25.607 41.539,25.607 36.861,25.607 32.952,38.24 41.539,38.24 
					43.763,38.24 44.174,38.24 46.161,38.24 54.984,38.24 				"/>
			</g>
			<circle fill="#57B7DF" cx="43.998" cy="11.744" r="7.108"/>
			<g>
				<path fill="#57B7DF" d="M31.055,25.186c-0.617,0-1.229,0.153-1.771,0.438c-1.247,0.66-2.022,1.944-2.022,3.355
					c0,1.633,1.042,3.079,2.592,3.597l0.555,0.185v-3.359h1.292v3.359l0.555-0.185c1.55-0.518,2.592-1.964,2.592-3.597
					C34.848,26.889,33.146,25.186,31.055,25.186z"/>
				<g>
					<path fill="#57B7DF" d="M32.15,27.34h-2.191v-7.418c0-5.125,3.486-5.817,6.896-5.817v2.192c-3.604,0-4.705,0.848-4.705,3.625
						V27.34z"/>
				</g>
			</g>
			<g>
				<path fill="#57B7DF" d="M42.844,46.445c-0.03-2.426-2.005-4.383-4.438-4.383c-2.433,0-4.408,1.957-4.438,4.383H42.844z"/>
				<g>
					<rect x="37.31" y="31.72" fill="#57B7DF" width="2.192" height="13.04"/>
				</g>
			</g>
			<g>
				<path fill="#57B7DF" d="M53.744,46.445c-0.029-2.426-2.006-4.383-4.439-4.383c-2.431,0-4.406,1.957-4.437,4.383H53.744z"/>
				<g>
					<rect x="48.211" y="31.72" fill="#57B7DF" width="2.191" height="13.04"/>
				</g>
			</g>
			<g>
				<path fill="#D5E053" d="M45.668,1.652c-0.33-0.601-0.968-1.008-1.699-1.008c-0.732,0-1.371,0.407-1.7,1.008l-2.43-1.329v2.261
					v2.259l2.43-1.329c0.33,0.601,0.968,1.008,1.7,1.008c0.731,0,1.37-0.407,1.699-1.008l2.43,1.329V2.584V0.323L45.668,1.652z"/>
				<g>
					<polyline fill="#D5E053" points="44.535,54.571 43.525,54.571 43.525,50.188 44.535,50.188 					"/>
				</g>
				<g>
					<path fill="#D5E053" d="M43.513,50.015"/>
					<path fill="#D5E053" d="M43.513,54.397"/>
				</g>
			</g>
			<g>
				<g>
					<path fill="#57B7DF" d="M55.779,27.34h2.191v-7.418c0-5.125-3.484-5.817-6.895-5.817v2.192c3.604,0,4.703,0.848,4.703,3.625
						V27.34z"/>
				</g>
			</g>
			<g>
				<path fill="#FFFFFF" d="M43.07,9.613l-0.238-0.238l-0.427,0.427c-0.144-0.106-0.315-0.18-0.502-0.208V8.99h-0.336v0.604
					c-0.187,0.028-0.358,0.102-0.502,0.208l-0.427-0.427l-0.239,0.238l0.427,0.427c-0.139,0.188-0.222,0.42-0.222,0.67
					c0,0.625,0.506,1.131,1.13,1.131c0.624,0,1.13-0.506,1.13-1.131c0-0.25-0.083-0.482-0.222-0.67L43.07,9.613z"/>
				<path fill="#FFFFFF" d="M47.537,9.613l-0.237-0.238l-0.427,0.427c-0.145-0.106-0.316-0.18-0.502-0.208V8.99h-0.337v0.604
					c-0.186,0.028-0.357,0.102-0.501,0.208l-0.427-0.427l-0.238,0.238l0.427,0.427c-0.139,0.188-0.222,0.42-0.222,0.67
					c0,0.625,0.506,1.131,1.131,1.131c0.624,0,1.13-0.506,1.13-1.131c0-0.25-0.083-0.482-0.222-0.67L47.537,9.613z"/>
			</g>
			<polygon fill="#D5E053" points="46.457,21.025 44.753,20.584 45.986,16.512 41.539,21.094 43.243,21.534 42.01,25.607 			"/>
			<g>
				<circle fill="#57B7DF" cx="44.031" cy="61.322" r="7.107"/>
				<g>
					<rect x="36.893" y="61.322" fill="#57B7DF" width="14.217" height="19.977"/>
					<polygon fill="#57B7DF" points="51.109,75.186 46.195,75.186 41.572,75.186 36.893,75.186 32.984,87.817 41.572,87.817 
						43.795,87.817 44.207,87.817 46.195,87.817 55.018,87.817 					"/>
				</g>
				<g>
					<path fill="#57B7DF" d="M31.088,55.009c-0.617,0-1.23-0.151-1.771-0.438c-1.246-0.66-2.021-1.945-2.021-3.356
						c0-1.633,1.041-3.078,2.592-3.596l0.555-0.186v3.361h1.293v-3.361l0.555,0.186c1.551,0.518,2.592,1.963,2.592,3.596
						C34.881,53.307,33.18,55.009,31.088,55.009z"/>
					<g>
						<path fill="#57B7DF" d="M32.184,52.855h-2.191v7.418c0,5.125,3.486,5.815,6.896,5.815v-2.19c-3.605,0-4.705-0.847-4.705-3.625
							V52.855z"/>
					</g>
				</g>
				<g>
					<path fill="#57B7DF" d="M42.877,96.023c-0.029-2.427-2.006-4.383-4.438-4.383c-2.434,0-4.408,1.956-4.439,4.383H42.877z"/>
					<g>
						<rect x="37.342" y="81.299" fill="#57B7DF" width="2.193" height="13.039"/>
					</g>
				</g>
				<g>
					<path fill="#57B7DF" d="M53.777,96.023c-0.029-2.427-2.006-4.383-4.438-4.383c-2.434,0-4.408,1.956-4.439,4.383H53.777z"/>
					<g>
						<rect x="48.244" y="81.299" fill="#57B7DF" width="2.191" height="13.039"/>
					</g>
				</g>
				<g>
					<path fill="#D5E053" d="M45.73,48.245c-0.328-0.601-0.967-1.008-1.699-1.008s-1.371,0.407-1.701,1.008l-2.428-1.329v2.261v2.26
						l2.428-1.329c0.33,0.601,0.969,1.007,1.701,1.007s1.371-0.406,1.699-1.007l2.43,1.329v-2.26v-2.261L45.73,48.245z"/>
				</g>
				<g>
					<path fill="#57B7DF" d="M56.908,74.764c0.617,0,1.229,0.152,1.771,0.438c1.248,0.659,2.021,1.945,2.021,3.355
						c0,1.633-1.041,3.078-2.592,3.596l-0.555,0.186v-3.36h-1.291v3.36l-0.557-0.186c-1.549-0.518-2.592-1.963-2.592-3.596
						C53.115,76.466,54.816,74.764,56.908,74.764z"/>
					<g>
						<path fill="#57B7DF" d="M55.812,76.917h2.191v-7.418c0-5.125-3.484-5.815-6.895-5.815v2.19c3.605,0,4.703,0.849,4.703,3.625
							V76.917z"/>
					</g>
				</g>
				<g>
					<path fill="#FFFFFF" d="M43.104,59.191l-0.238-0.238l-0.428,0.428c-0.145-0.107-0.314-0.18-0.502-0.208v-0.604H41.6v0.604
						c-0.186,0.028-0.357,0.101-0.502,0.208l-0.426-0.428l-0.24,0.238l0.428,0.427c-0.139,0.188-0.223,0.419-0.223,0.671
						c0,0.624,0.508,1.131,1.131,1.131c0.625,0,1.131-0.507,1.131-1.131c0-0.252-0.084-0.483-0.223-0.671L43.104,59.191z"/>
					<path fill="#FFFFFF" d="M47.572,59.191l-0.24-0.238l-0.428,0.428c-0.145-0.107-0.316-0.18-0.5-0.208v-0.604h-0.338v0.604
						c-0.186,0.028-0.357,0.101-0.502,0.208l-0.426-0.428L44.9,59.191l0.426,0.427c-0.139,0.188-0.223,0.419-0.223,0.671
						c0,0.624,0.508,1.131,1.131,1.131s1.131-0.507,1.131-1.131c0-0.252-0.084-0.483-0.223-0.671L47.572,59.191z"/>
				</g>
				<polygon fill="#D5E053" points="41.572,70.603 43.275,70.163 42.043,66.089 46.49,70.672 44.785,71.111 46.018,75.186 				"/>
			</g>
		</g>
	</g>
	<path fill="#57B7DF" d="M56.895,26.213c0.617,0,1.229,0.152,1.771,0.438c1.248,0.659,2.021,1.945,2.021,3.355
		c0,1.633-1.041,3.078-2.592,3.596l-0.555,0.186v-3.36H56.25v3.36l-0.557-0.186c-1.549-0.518-2.592-1.963-2.592-3.596
		C53.102,27.916,54.803,26.213,56.895,26.213z"/>
</g>
</svg>
