<?xml version="1.0" encoding="utf-8"?>
<!-- Generator: Adobe Illustrator 16.0.0, SVG Export Plug-In . SVG Version: 6.00 Build 0)  -->
<!DOCTYPE svg PUBLIC "-//W3C//DTD SVG 1.1//EN" "http://www.w3.org/Graphics/SVG/1.1/DTD/svg11.dtd">
<svg version="1.1" id="Layer_1" xmlns="http://www.w3.org/2000/svg" xmlns:xlink="http://www.w3.org/1999/xlink" x="0px" y="0px"
	 width="96.458px" height="98.199px" viewBox="1.664 0.229 96.458 98.199" enable-background="new 1.664 0.229 96.458 98.199"
	 xml:space="preserve">
<ellipse fill="#CAE1DD" cx="51.487" cy="94.867" rx="35.791" ry="3.561"/>
<g id="VictoryBot">
	<g>
		<polygon fill="#57B7DF" points="64.997,58.303 37.979,58.303 34.463,27.536 68.514,27.536 		"/>
		<path fill="#57B7DF" d="M66.669,17.831c0,3.006-2.438,5.443-5.444,5.443H41.751c-3.007,0-5.444-2.438-5.444-5.443v-0.519
			c0-3.006,2.438-5.444,5.444-5.444h19.474c3.006,0,5.443,2.438,5.443,5.444L66.669,17.831L66.669,17.831z"/>
		<rect x="48.502" y="23.274" fill="#57B7DF" width="5.973" height="4.391"/>
		<g>
			<g>
				<rect x="40.9" y="58.303" fill="#57B7DF" width="3.854" height="13.371"/>
			</g>
			<g>
				<rect x="40.9" y="71.674" fill="#57B7DF" width="3.854" height="16.5"/>
			</g>
			<g>
				<rect x="38.084" y="85.128" fill="#57B7DF" width="9.484" height="7.409"/>
				<path fill="#57B7DF" d="M37.799,92.537h10.055c1.462,0,2.647,1.474,2.647,3.293H35.152
					C35.152,94.011,36.338,92.537,37.799,92.537z"/>
			</g>
			<path fill="#57B7DF" d="M42.826,67.632c-2.229,0-4.041,1.813-4.041,4.041c0,2.229,1.812,4.042,4.041,4.042
				s4.042-1.812,4.042-4.042C46.868,69.445,45.055,67.632,42.826,67.632z"/>
		</g>
		<g>
			<g>
				<rect x="58.225" y="58.303" fill="#57B7DF" width="3.853" height="13.371"/>
			</g>
			<g>
				<rect x="58.225" y="71.674" fill="#57B7DF" width="3.853" height="16.5"/>
			</g>
			<g>
				<rect x="55.408" y="85.128" fill="#57B7DF" width="9.484" height="7.409"/>
				<path fill="#57B7DF" d="M55.122,92.537h10.056c1.461,0,2.646,1.474,2.646,3.293H52.477
					C52.477,94.011,53.661,92.537,55.122,92.537z"/>
			</g>
			<path fill="#57B7DF" d="M60.148,67.632c-2.229,0-4.041,1.813-4.041,4.041c0,2.229,1.812,4.042,4.041,4.042
				c2.229,0,4.043-1.812,4.043-4.042C64.191,69.445,62.378,67.632,60.148,67.632z"/>
		</g>
		<g>
			<path fill="#57B7DF" d="M24.972,3.19c-1.239-1.854-3.312-2.961-5.546-2.961c-0.594,0-1.183,0.079-1.754,0.235l-0.993,0.271
				l3.28,4.912l-1.89,1.263l-3.28-4.913l-0.63,0.812c-1.761,2.271-1.873,5.401-0.278,7.788c1.24,1.857,3.315,2.966,5.55,2.966l0,0
				c1.319,0,2.598-0.389,3.698-1.124c0.902-0.602,1.649-1.422,2.162-2.37C26.47,7.888,26.349,5.252,24.972,3.19z"/>
			<g>
				
					<rect x="13.92" y="19.896" transform="matrix(-0.5554 -0.8316 0.8316 -0.5554 27.577 58.389)" fill="#57B7DF" width="30.954" height="3.853"/>
			</g>
		</g>
		<g>
			<path fill="#57B7DF" d="M88.816,2.81l-0.631-0.812l-3.279,4.913l-1.889-1.263l3.279-4.912l-0.992-0.271
				c-0.57-0.156-1.16-0.235-1.755-0.235c-2.233,0-4.308,1.107-5.546,2.961c-1.377,2.062-1.499,4.698-0.318,6.88
				c0.512,0.947,1.258,1.767,2.16,2.37c1.102,0.735,2.379,1.124,3.698,1.124c2.235,0,4.312-1.109,5.552-2.966
				C90.689,8.211,90.579,5.082,88.816,2.81z"/>
			<g>
				
					<rect x="71.658" y="6.343" transform="matrix(-0.8316 -0.5553 0.5553 -0.8316 122.6601 80.8314)" fill="#57B7DF" width="3.853" height="30.955"/>
			</g>
		</g>
	</g>
	<g>
		<circle fill="#FFFFFF" cx="42.13" cy="17.571" r="2.881"/>
		<circle fill="#FFFFFF" cx="60.846" cy="17.571" r="2.881"/>
	</g>
</g>
<polygon fill="#D5E053" points="57.591,43.282 53.361,42.189 56.422,32.078 45.385,43.454 49.613,44.546 46.554,54.658 "/>
</svg>
