<?xml version="1.0" encoding="utf-8"?>
<!-- Generator: Adobe Illustrator 16.0.0, SVG Export Plug-In . SVG Version: 6.00 Build 0)  -->
<!DOCTYPE svg PUBLIC "-//W3C//DTD SVG 1.1//EN" "http://www.w3.org/Graphics/SVG/1.1/DTD/svg11.dtd">
<svg version="1.1" id="Layer_1" xmlns="http://www.w3.org/2000/svg" xmlns:xlink="http://www.w3.org/1999/xlink" x="0px" y="0px"
	 width="250.141px" height="291.65px" viewBox="-10.077 0 250.141 291.65" enable-background="new -10.077 0 250.141 291.65"
	 xml:space="preserve">
<path fill="#CAE1DD" d="M92.104,271.322c56.438,0,102.186,4.552,102.186,10.166c0,5.612-45.748,10.163-102.186,10.163
	c-56.433,0-102.181-4.551-102.181-10.163C-10.077,275.873,35.671,271.322,92.104,271.322z"/>
<g id="CircuitBot">
	<g>
		<g>
			<path fill="#57B7DF" d="M22.5,147.634c-3.657,0-7.29,0.898-10.505,2.599C4.597,154.145,0,161.77,0,170.134
				c0,9.687,6.179,18.259,15.375,21.331l3.292,1.1v-19.931h7.666v19.931l3.292-1.1C38.821,188.393,45,179.82,45,170.134
				C45,157.727,34.906,147.634,22.5,147.634z"/>
			<g>
				<path fill="#57B7DF" d="M29,160.406H16v-44c0-30.401,20.677-34.5,40.901-34.5v13C35.52,94.906,29,99.929,29,116.406V160.406z"/>
			</g>
		</g>
		<path fill="#57B7DF" d="M143.197,53.23c0,5.88-4.766,10.646-10.645,10.646H40.348c-5.881,0-10.646-4.767-10.646-10.646V10.646
			C29.701,4.766,34.467,0,40.348,0h92.205c5.879,0,10.646,4.766,10.646,10.646V53.23H143.197z"/>
		<g>
			<path fill="#57B7DF" d="M161.279,281.487c-0.182-14.39-11.895-26-26.327-26s-26.146,11.61-26.326,26H161.279z"/>
			<g>
				<path fill="#57B7DF" d="M141.451,262.487h-13c0-21.248-7.534-40.015-21.788-54.269l9.192-9.193
					C132.601,215.771,141.451,237.716,141.451,262.487z"/>
			</g>
		</g>
		<g>
			<path fill="#57B7DF" d="M11.619,281.487c0.182-14.39,11.895-26,26.327-26s26.146,11.61,26.326,26H11.619z"/>
			<g>
				<path fill="#57B7DF" d="M44.447,262.487h-13c0-24.771,8.852-46.716,25.596-63.462l9.192,9.193
					C51.981,222.473,44.447,241.239,44.447,262.487z"/>
			</g>
		</g>
		<rect x="54.338" y="63.877" fill="#57B7DF" width="64.223" height="149.745"/>
		<g>
			<g>
				<rect x="117.339" y="81.906" fill="#57B7DF" width="86.057" height="13"/>
			</g>
			<path fill="#57B7DF" d="M221.145,82.721l18.919-8.676l-2.372-2.534c-4.242-4.534-10.237-7.134-16.446-7.134
				c-3.239,0-6.386,0.689-9.352,2.05c-8.723,4-13.915,13.058-12.999,22.599c-0.916,9.541,4.276,18.6,12.999,22.6
				c2.966,1.359,6.111,2.05,9.352,2.05c6.209,0,12.204-2.6,16.446-7.134l2.372-2.534l-18.919-8.676V82.721z"/>
		</g>
	</g>
	<g>
		<rect x="68.659" y="37.956" fill="#FFFFFF" width="10.109" height="17"/>
		<rect x="81.996" y="37.956" fill="#FFFFFF" width="10.11" height="17"/>
		<rect x="95.334" y="37.956" fill="#FFFFFF" width="10.109" height="17"/>
		<rect x="108.672" y="37.956" fill="#FFFFFF" width="10.108" height="17"/>
		<rect x="122.009" y="37.956" fill="#FFFFFF" width="10.11" height="17"/>
	</g>
	<g>
		<circle fill="#FFFFFF" cx="115.013" cy="18.456" r="5"/>
		<circle fill="#FFFFFF" cx="92.107" cy="18.456" r="5"/>
	</g>
</g>
<polygon fill="#D5E053" points="99.309,138.406 89.203,135.794 96.516,111.631 70.141,138.816 80.247,141.427 72.934,165.589 "/>
</svg>
