<?xml version="1.0" encoding="utf-8"?>
<!-- Generator: Adobe Illustrator 16.0.0, SVG Export Plug-In . SVG Version: 6.00 Build 0)  -->
<!DOCTYPE svg PUBLIC "-//W3C//DTD SVG 1.1//EN" "http://www.w3.org/Graphics/SVG/1.1/DTD/svg11.dtd">
<svg version="1.1" id="Layer_1" xmlns="http://www.w3.org/2000/svg" xmlns:xlink="http://www.w3.org/1999/xlink" x="0px" y="0px"
	 width="96px" height="96px" viewBox="0 0 96 96" enable-background="new 0 0 96 96" xml:space="preserve">
<g id="HoverBot">
	<g>
		<g>
			<path fill="#57B7DF" d="M26.58,25.333c-0.589,0-1.173,0.145-1.69,0.418c-1.189,0.63-1.93,1.856-1.93,3.202
				c0,1.559,0.994,2.938,2.474,3.432l0.53,0.177v-3.206h1.232v3.206l0.53-0.177c1.479-0.494,2.474-1.873,2.474-3.432
				C30.2,26.958,28.576,25.333,26.58,25.333z"/>
			<g>
				<path fill="#57B7DF" d="M27.626,27.388h-2.092V20.31c0-4.892,3.327-5.552,6.581-5.552v2.092c-3.44,0-4.489,0.809-4.489,3.46
					V27.388z"/>
			</g>
		</g>
		<g>
			<path fill="#57B7DF" d="M65.021,25.751c-0.518-0.273-1.102-0.418-1.69-0.418c-1.996,0-3.62,1.624-3.62,3.62
				c0,1.559,0.994,2.938,2.475,3.432l0.528,0.177v-3.206h1.234v3.206l0.529-0.177c1.479-0.494,2.474-1.873,2.474-3.432
				C66.95,27.608,66.211,26.381,65.021,25.751z"/>
			<g>
				<path fill="#57B7DF" d="M64.376,27.388h-2.091V20.31c0-2.651-1.05-3.46-4.49-3.46v-2.092c3.255,0,6.581,0.66,6.581,5.552V27.388
					z"/>
			</g>
		</g>
		<circle fill="#57B7DF" cx="45.191" cy="10.565" r="7.354"/>
		<path fill="#57B7DF" d="M54.781,10.955H35.129c-1.665,0-3.014,1.35-3.014,3.014v5.862v1.47v3.696h25.68V21.3v-1.47v-5.862
			C57.795,12.304,56.445,10.955,54.781,10.955z"/>
		<polygon fill="#57B7DF" points="52.406,28.304 37.55,28.304 35.941,24.997 54.015,24.997 		"/>
	</g>
	<g>
		<circle fill="#FFFFFF" cx="45.191" cy="9.836" r="0.804"/>
		<circle fill="#FFFFFF" cx="49.187" cy="9.836" r="0.805"/>
	</g>
	<g>
		<g>
			<path fill="#D5E053" d="M44.955,34.44c-0.885,0-8.649-0.059-8.649-2.092c0-2.032,7.765-2.092,8.649-2.092s8.648,0.06,8.648,2.092
				C53.604,34.381,45.84,34.44,44.955,34.44z M37.307,32.348c0.447,0.433,3.188,1.127,7.648,1.127s7.201-0.694,7.648-1.127
				c-0.447-0.432-3.188-1.126-7.648-1.126S37.754,31.917,37.307,32.348z"/>
		</g>
		<g>
			<path fill="#D5E053" d="M44.955,38.446c-1.459,0-6.219-0.116-6.219-1.612c0-1.497,4.76-1.613,6.219-1.613
				s6.219,0.116,6.219,1.613C51.174,38.33,46.414,38.446,44.955,38.446z M39.858,36.833c0.581,0.271,2.325,0.647,5.097,0.647
				c2.772,0,4.516-0.376,5.097-0.647c-0.581-0.271-2.324-0.647-5.097-0.647C42.184,36.186,40.439,36.562,39.858,36.833z"/>
		</g>
		<g>
			<path fill="#D5E053" d="M44.955,41.963c-1.677,0-4.49-0.165-4.49-1.272c0-1.106,2.813-1.271,4.49-1.271s4.49,0.165,4.49,1.271
				C49.445,41.798,46.632,41.963,44.955,41.963z M41.839,40.691c0.574,0.153,1.631,0.308,3.116,0.308s2.542-0.154,3.116-0.308
				c-0.574-0.152-1.631-0.307-3.116-0.307S42.413,40.539,41.839,40.691z"/>
		</g>
	</g>
</g>
<polygon fill="#D5E053" points="47.22,18.873 45.667,18.471 46.79,14.758 42.737,18.936 44.29,19.337 43.167,23.05 "/>
<g id="HoverBot_1_">
	<g>
		<g>
			<path fill="#57B7DF" d="M26.58,69.711c-0.589,0-1.173,0.145-1.69,0.418c-1.189,0.629-1.93,1.855-1.93,3.201
				c0,1.559,0.994,2.938,2.474,3.432l0.53,0.178v-3.207h1.232v3.207l0.53-0.178c1.479-0.494,2.474-1.873,2.474-3.432
				C30.2,71.334,28.576,69.711,26.58,69.711z"/>
			<g>
				<path fill="#57B7DF" d="M27.625,71.766h-2.092v-7.079c0-4.892,3.327-5.552,6.581-5.552v2.092c-3.44,0-4.489,0.809-4.489,3.46
					V71.766z"/>
			</g>
		</g>
		<g>
			<path fill="#57B7DF" d="M65.02,70.129c-0.518-0.273-1.102-0.418-1.689-0.418c-1.996,0-3.621,1.623-3.621,3.619
				c0,1.559,0.994,2.938,2.475,3.432l0.529,0.178v-3.207h1.234v3.207l0.529-0.178c1.479-0.494,2.473-1.873,2.473-3.432
				C66.949,71.984,66.211,70.758,65.02,70.129z"/>
			<g>
				<path fill="#57B7DF" d="M64.375,71.766h-2.09v-7.079c0-2.651-1.051-3.46-4.49-3.46v-2.092c3.254,0,6.58,0.66,6.58,5.552V71.766z
					"/>
			</g>
		</g>
		<circle fill="#57B7DF" cx="45.191" cy="54.941" r="7.354"/>
		<path fill="#57B7DF" d="M54.781,55.331H35.128c-1.665,0-3.014,1.35-3.014,3.014v5.862v1.47v3.696h25.68v-3.696v-1.47v-5.862
			C57.795,56.681,56.445,55.331,54.781,55.331z"/>
		<polygon fill="#57B7DF" points="52.406,72.682 37.549,72.682 35.941,69.373 54.014,69.373 		"/>
	</g>
	<g>
		<circle fill="#FFFFFF" cx="45.19" cy="54.213" r="0.804"/>
		<circle fill="#FFFFFF" cx="49.186" cy="54.213" r="0.804"/>
	</g>
	<g>
		<g>
			<path fill="#D5E053" d="M44.978,77.146c-0.885,0-8.649-0.059-8.649-2.092c0-2.031,7.765-2.092,8.649-2.092
				s8.649,0.061,8.649,2.092C53.627,77.088,45.863,77.146,44.978,77.146z M37.33,75.055c0.447,0.434,3.188,1.127,7.648,1.127
				c4.461,0,7.202-0.693,7.649-1.127c-0.447-0.432-3.188-1.125-7.649-1.125C40.517,73.93,37.777,74.623,37.33,75.055z"/>
		</g>
		<g>
			<path fill="#D5E053" d="M44.978,81.152c-1.459,0-6.219-0.115-6.219-1.611c0-1.498,4.76-1.613,6.219-1.613
				s6.219,0.115,6.219,1.613C51.197,81.037,46.437,81.152,44.978,81.152z M39.881,79.541c0.581,0.271,2.325,0.646,5.097,0.646
				c2.772,0,4.516-0.375,5.096-0.646c-0.58-0.271-2.324-0.648-5.096-0.648C42.207,78.893,40.462,79.27,39.881,79.541z"/>
		</g>
		<g>
			<path fill="#D5E053" d="M44.978,84.67c-1.677,0-4.49-0.164-4.49-1.271s2.813-1.271,4.49-1.271s4.491,0.164,4.491,1.271
				S46.655,84.67,44.978,84.67z M41.862,83.398c0.574,0.152,1.631,0.307,3.116,0.307s2.542-0.154,3.116-0.307
				c-0.574-0.152-1.631-0.307-3.116-0.307S42.436,83.246,41.862,83.398z"/>
		</g>
	</g>
</g>
<polygon fill="#D5E053" points="42.714,63.249 44.267,62.848 43.144,59.135 47.197,63.312 45.644,63.714 46.767,67.428 "/>
</svg>
