<?xml version="1.0" encoding="utf-8"?>
<!-- Generator: Adobe Illustrator 16.0.0, SVG Export Plug-In . SVG Version: 6.00 Build 0)  -->
<!DOCTYPE svg PUBLIC "-//W3C//DTD SVG 1.1//EN" "http://www.w3.org/Graphics/SVG/1.1/DTD/svg11.dtd">
<svg version="1.1" id="Layer_1" xmlns="http://www.w3.org/2000/svg" xmlns:xlink="http://www.w3.org/1999/xlink" x="0px" y="0px"
	 width="52.34px" height="98.282px" viewBox="23.141 0.551 52.34 98.282" enable-background="new 23.141 0.551 52.34 98.282"
	 xml:space="preserve">
<ellipse fill="#CAE1DD" cx="49.311" cy="96.23" rx="26.17" ry="2.603"/>
<g id="BabyBot">
	<g>
		<g>
			<rect x="35.694" y="58.65" fill="#57B7DF" width="27.783" height="16.791"/>
			<g>
				<g>
					<polygon fill="#D5E053" points="50.466,45.209 48.489,45.209 48.489,39.141 41.548,34.317 42.676,32.694 50.466,38.107 					
						"/>
				</g>
				<path fill="#D5E053" d="M42.112,29.716c-2.09,0-3.79,1.699-3.79,3.789s1.7,3.79,3.79,3.79c2.091,0,3.789-1.7,3.789-3.79
					S44.202,29.716,42.112,29.716z"/>
			</g>
			<circle fill="#57B7DF" cx="49.585" cy="58.651" r="13.891"/>
			<g>
				<path fill="#57B7DF" d="M47.641,96c-0.043-3.414-2.823-6.17-6.248-6.17s-6.205,2.756-6.248,6.17H47.641z"/>
				<g>
					<rect x="39.851" y="75.271" fill="#57B7DF" width="3.085" height="18.354"/>
				</g>
				<circle fill="#57B7DF" cx="41.393" cy="82.674" r="3.001"/>
			</g>
			<g>
				<path fill="#57B7DF" d="M62.986,96c-0.043-3.414-2.822-6.17-6.248-6.17S50.533,92.586,50.49,96H62.986z"/>
				<g>
					<rect x="55.195" y="75.271" fill="#57B7DF" width="3.084" height="18.354"/>
				</g>
				<circle fill="#57B7DF" cx="56.738" cy="82.674" r="3"/>
			</g>
		</g>
		<g>
			<rect x="51.67" y="52.339" fill="#FFFFFF" width="2.199" height="6.262"/>
			<rect x="45.298" y="52.339" fill="#FFFFFF" width="2.2" height="6.262"/>
		</g>
	</g>
	<path fill="#81B03C" d="M63.083,12.747c-0.958-0.605-1.46-0.854-2.477-1.234c0.681-0.817,0.985-1.283,1.478-2.315
		c-0.59-1.312-0.986-1.961-2.023-3.202c-1.233-0.132-1.847-0.139-3.013-0.037c-0.003-1.168-0.063-1.777-0.306-2.996
		c-1.332-0.921-2.015-1.258-3.371-1.728c-0.984,0.583-1.422,0.929-2.175,1.681c-0.471-0.975-0.764-1.455-1.452-2.354
		c-1.341-0.042-2.003,0.032-3.277,0.338c-0.503,1.018-0.695,1.541-0.96,2.575c-0.835-0.611-1.3-0.882-2.303-1.327
		c-1.153,0.62-1.7,1-2.692,1.861c0.025,1.12,0.094,1.663,0.329,2.683c-1.035-0.143-1.581-0.163-2.699-0.086
		c-0.769,1.064-1.1,1.644-1.613,2.848c0.533,0.959,0.845,1.398,1.529,2.175c-1.007,0.357-1.511,0.595-2.478,1.188
		c-0.188,1.296-0.205,1.963-0.042,3.294c0.959,0.606,1.461,0.854,2.477,1.234c-0.68,0.817-0.988,1.283-1.479,2.316
		c0.591,1.312,0.987,1.96,2.024,3.201c1.233,0.132,1.847,0.139,3.011,0.037c0.005,1.169,0.065,1.777,0.308,2.996
		c1.33,0.921,2.011,1.258,3.371,1.728c0.984-0.582,1.42-0.93,2.175-1.681c0.47,0.977,0.762,1.455,1.452,2.354
		c1.34,0.043,2.004-0.032,3.276-0.337c0.504-1.018,0.693-1.542,0.959-2.575c0.838,0.611,1.301,0.882,2.306,1.327
		c1.151-0.621,1.698-1.001,2.69-1.862c-0.023-1.121-0.094-1.663-0.33-2.683c1.037,0.144,1.582,0.163,2.701,0.087
		c0.77-1.064,1.099-1.645,1.609-2.849c-0.531-0.959-0.844-1.398-1.525-2.175c1.004-0.357,1.51-0.596,2.479-1.188
		C63.229,14.746,63.246,14.078,63.083,12.747z M54.152,7.447l-2.957,3.238c-1.303-0.656-2.861-0.585-4.099,0.185l-3.239-2.958
		C46.785,5.456,51.02,5.265,54.152,7.447z M42.329,9.585l3.238,2.958c-0.656,1.302-0.586,2.861,0.185,4.099l-2.958,3.237
		C40.338,16.954,40.148,12.719,42.329,9.585z M44.467,21.409l2.959-3.237c1.301,0.656,2.861,0.585,4.098-0.186l3.24,2.959
		C51.837,23.4,47.604,23.591,44.467,21.409z M56.292,19.271l-3.237-2.959c0.656-1.303,0.584-2.861-0.187-4.099l2.959-3.237
		C58.283,11.902,58.475,16.135,56.292,19.271z"/>
</g>
</svg>
