<?xml version="1.0" encoding="utf-8"?>
<!-- Generator: Adobe Illustrator 16.0.0, SVG Export Plug-In . SVG Version: 6.00 Build 0)  -->
<!DOCTYPE svg PUBLIC "-//W3C//DTD SVG 1.1//EN" "http://www.w3.org/Graphics/SVG/1.1/DTD/svg11.dtd">
<svg version="1.1" id="Layer_1" xmlns="http://www.w3.org/2000/svg" xmlns:xlink="http://www.w3.org/1999/xlink" x="0px" y="0px"
	 width="96px" height="96px" viewBox="0 0 96 96" enable-background="new 0 0 96 96" xml:space="preserve">
<ellipse fill="#CAE1DD" cx="42.306" cy="91.997" rx="42.308" ry="3.561"/>
<g id="RunBot">
	<g>
		<g>
			<g>
				
					<rect x="80.256" y="23.769" transform="matrix(-0.8651 -0.5016 0.5016 -0.8651 137.927 99.0728)" fill="#57B7DF" width="4.063" height="14.437"/>
			</g>
			<g>
				
					<rect x="65.088" y="33.752" transform="matrix(-0.9776 -0.2107 0.2107 -0.9776 134.7551 85.9216)" fill="#57B7DF" width="13.733" height="4.062"/>
			</g>
			<path fill="#57B7DF" d="M92.709,17.539l-0.717-0.813l-3.125,5.388l-2.072-1.202l3.125-5.387l-1.062-0.219
				c-0.465-0.096-0.94-0.144-1.416-0.144c-2.5,0-4.832,1.342-6.084,3.5c-0.94,1.625-1.194,3.519-0.713,5.334
				c0.484,1.815,1.644,3.333,3.269,4.275c0.989,0.573,2.11,0.899,3.248,0.945c0.09,0.002,0.185,0.005,0.272,0.005
				c2.502,0,4.836-1.343,6.088-3.505C95.039,23.097,94.713,19.811,92.709,17.539z"/>
			<path fill="#57B7DF" d="M82.244,34.916c-0.617-0.956-1.57-1.615-2.682-1.854c-0.297-0.063-0.601-0.097-0.902-0.097
				c-1.99,0-3.74,1.416-4.162,3.365c-0.494,2.297,0.973,4.567,3.268,5.063c0.299,0.064,0.601,0.097,0.902,0.097l0,0
				c1.992,0,3.74-1.415,4.162-3.364C83.07,37.012,82.861,35.873,82.244,34.916z"/>
		</g>
		<g>
			<g>
				
					<rect x="20.415" y="24.919" transform="matrix(-0.8656 -0.5008 0.5008 -0.8656 25.784 71.1942)" fill="#57B7DF" width="4.063" height="14.435"/>
			</g>
			<g>
				
					<rect x="25.907" y="25.306" transform="matrix(-0.9776 -0.2106 0.2106 -0.9776 59.0561 60.9625)" fill="#57B7DF" width="13.734" height="4.061"/>
			</g>
			<path fill="#57B7DF" d="M20.822,34.852c-0.989-0.572-2.113-0.897-3.249-0.94c-2.591-0.098-5.061,1.264-6.358,3.507
				c-1.516,2.621-1.185,5.906,0.821,8.175l0.719,0.812l3.117-5.39l2.073,1.199l-3.117,5.391l1.062,0.217
				c0.463,0.094,0.936,0.144,1.409,0.144c2.503,0,4.836-1.344,6.088-3.509C25.328,41.103,24.178,36.793,20.822,34.852z"/>
			<path fill="#57B7DF" d="M29.64,23.58c-0.617-0.957-1.57-1.615-2.683-1.855c-0.297-0.064-0.6-0.096-0.901-0.096
				c-1.992,0-3.742,1.415-4.162,3.364c-0.24,1.113-0.032,2.253,0.585,3.208c0.617,0.957,1.57,1.615,2.682,1.854
				c0.297,0.064,0.6,0.097,0.901,0.097l0,0c1.991,0,3.741-1.415,4.162-3.364C30.465,25.676,30.257,24.535,29.64,23.58z"/>
		</g>
		<g>
			<g>
				
					<rect x="29.645" y="56.999" transform="matrix(-0.842 -0.5395 0.5395 -0.842 23.7048 135.375)" fill="#57B7DF" width="4.062" height="14.434"/>
			</g>
			<g>
				
					<rect x="18.249" y="65.428" transform="matrix(-0.1322 -0.9912 0.9912 -0.1322 -48.6985 101.9529)" fill="#57B7DF" width="4.063" height="13.731"/>
			</g>
			<path fill="#57B7DF" d="M31.247,70.477c-0.244-1.112-0.905-2.062-1.864-2.677c-0.688-0.44-1.482-0.672-2.295-0.672
				c-1.461,0-2.804,0.733-3.592,1.963c-1.266,1.979-0.688,4.619,1.291,5.888c0.688,0.439,1.481,0.672,2.294,0.672h0.001
				c1.461,0,2.804-0.733,3.591-1.963C31.287,72.729,31.491,71.588,31.247,70.477z"/>
			<path fill="#57B7DF" d="M8.36,82.186c4.449-0.648,7.561-4.756,6.965-9.228c-0.596-4.472-4.677-7.619-9.141-7.08L8.36,82.186z"/>
		</g>
		<g>
			<g>
				
					<rect x="56.014" y="6.215" transform="matrix(-0.9775 -0.211 0.211 -0.9775 110.4502 32.3402)" fill="#D5E053" width="1.874" height="8.124"/>
			</g>
			<path fill="#D5E053" d="M58.955,0.961c-0.248-0.054-0.506-0.082-0.758-0.082c-1.68,0-3.156,1.193-3.512,2.837
				c-0.201,0.938-0.027,1.9,0.494,2.706c0.521,0.808,1.323,1.362,2.262,1.564c0.252,0.055,0.506,0.082,0.762,0.082l0,0
				c1.68,0,3.154-1.194,3.508-2.838C62.129,3.294,60.893,1.378,58.955,0.961z"/>
		</g>
		<g>
			<g>
				
					<rect x="53.548" y="64.861" transform="matrix(-0.5294 -0.8484 0.8484 -0.5294 36.1865 153.8569)" fill="#57B7DF" width="14.436" height="4.063"/>
			</g>
			<path fill="#57B7DF" d="M64.588,68.561c-2.35,0-4.26,1.912-4.26,4.263c0,2.35,1.91,4.26,4.26,4.26c2.352,0,4.262-1.91,4.262-4.26
				C68.85,70.473,66.939,68.561,64.588,68.561z"/>
			<g>
				<rect x="62.559" y="73.016" fill="#57B7DF" width="4.062" height="17.158"/>
			</g>
			<g>
				<path fill="#57B7DF" d="M72.816,95.121c-0.06-4.495-3.717-8.124-8.229-8.124c-4.508,0-8.17,3.629-8.226,8.124H72.816z"/>
				<g>
					<rect x="62.559" y="80.327" fill="#57B7DF" width="4.062" height="11.669"/>
				</g>
			</g>
		</g>
		
			<rect x="36.639" y="24.88" transform="matrix(-0.9776 -0.2107 0.2107 -0.9776 89.3653 96.3107)" fill="#57B7DF" width="26.348" height="37.029"/>
		<path fill="#57B7DF" d="M66.59,28.07c1.533-7.113-2.988-14.121-10.102-15.654c-7.111-1.532-14.122,2.99-15.655,10.103"/>
	</g>
	<g>
		<path fill="#FFFFFF" d="M62.143,25.064c0.168-0.788-0.332-1.563-1.121-1.732c-0.785-0.17-1.561,0.331-1.731,1.118
			c-0.168,0.787,0.332,1.563,1.121,1.732C61.195,26.352,61.971,25.851,62.143,25.064z"/>
		<circle fill="#FFFFFF" cx="54.505" cy="23.419" r="1.458"/>
	</g>
	<polygon fill="#D5E053" points="55.561,36.007 45.715,42.575 48.63,44.038 44.805,50.938 54.65,44.37 51.736,42.906 	"/>
</g>
</svg>
