<?xml version="1.0" encoding="utf-8"?>
<!-- Generator: Adobe Illustrator 16.0.0, SVG Export Plug-In . SVG Version: 6.00 Build 0)  -->
<!DOCTYPE svg PUBLIC "-//W3C//DTD SVG 1.1//EN" "http://www.w3.org/Graphics/SVG/1.1/DTD/svg11.dtd">
<svg version="1.1" id="Layer_1" xmlns="http://www.w3.org/2000/svg" xmlns:xlink="http://www.w3.org/1999/xlink" x="0px" y="0px"
	 width="96px" height="96px" viewBox="0 0 96 96" enable-background="new 0 0 96 96" xml:space="preserve">
<g>
	<path fill="#D5E052" d="M7.975,8.956c0,0-14.869,13.646-0.603,40.79l15.186-17.108l11.556,30.036l21.724-8.48L73.32,70.926
		l3.717-5.451L58.363,45.698l-20.905,7.157l-9.916-32.678l-17.26,13.079C10.282,33.256,3.994,25.697,7.975,8.956z"/>
	<polygon fill="#D5E052" points="80.32,64.746 89.625,61.65 82.355,67.893 94.816,64.619 83.945,69.557 92.166,69.982 
		85.016,70.957 92.945,77.861 81.695,72.977 83.365,86.156 79.059,76.719 77.824,83.83 77.824,73.312 71.627,86.514 74.217,74.967 
		63.822,79.477 71.744,72.828 64.596,73.857 73.32,70.926 58.369,69.566 73.361,69.291 67.262,60.031 77.037,65.475 73.955,56.254 
		77.09,62.758 78.676,52.326 79.301,62.795 81.938,58.596 	"/>
</g>
</svg>
