<?xml version="1.0" encoding="utf-8"?>
<!-- Generator: Adobe Illustrator 16.0.0, SVG Export Plug-In . SVG Version: 6.00 Build 0)  -->
<!DOCTYPE svg PUBLIC "-//W3C//DTD SVG 1.1//EN" "http://www.w3.org/Graphics/SVG/1.1/DTD/svg11.dtd">
<svg version="1.1" id="Layer_1" xmlns="http://www.w3.org/2000/svg" xmlns:xlink="http://www.w3.org/1999/xlink" x="0px" y="0px"
	 width="334px" height="364.352px" viewBox="0 0 334 364.352" enable-background="new 0 0 334 364.352" xml:space="preserve">
<g>
	<g>
		<path fill="#57B7DF" d="M307.393,72.875c0,0-126.955-72.875-140.326-72.875C153.7,0,26.71,72.873,26.71,72.873S0,86.118,0,112.613
			c0,15.851,0,40.8,0,66.139c0,2.283,0,4.566,0,6.851c0,25.339,0,50.287,0,66.139c0,26.494,26.743,39.738,26.743,39.738
			s127.023,72.873,140.389,72.873c13.37,0,140.261-72.875,140.261-72.875S334,278.235,334,251.736c0-15.848,0-40.791,0-66.128
			c0-2.287,0-4.576,0-6.863c0-25.337,0-50.28,0-66.128C334,86.117,307.393,72.875,307.393,72.875z M317,194.801v56.938
			c0,14.396-16.014,23.171-17.18,23.799l-0.981,0.267l-0.256,0.213c-0.294,0.166-29.667,17.027-61.179,34.265
			c-48.04,26.274-64.773,33.646-70.29,35.709c-5.516-2.062-22.327-9.437-70.367-35.707c-31.511-17.234-60.986-34.098-61.278-34.264
			l-0.746-0.351l-0.423-0.134C33.068,274.866,17,266.1,17,251.74v-56.945v-25.235v-56.944c0-14.36,16.069-23.128,17.302-23.798
			l0.497-0.133l0.712-0.351c0.292-0.166,29.753-17.029,61.264-34.265c48.04-26.27,64.851-33.644,70.367-35.706
			c5.516,2.062,22.26,9.435,70.301,35.709c31.512,17.236,60.918,34.099,61.213,34.265l0.322,0.212l0.844,0.267
			C300.986,89.442,317,98.218,317,112.613v56.938V194.801z"/>
	</g>
	<g>
		<path fill="#D5E052" d="M72.686,90.799c0,0-35.038,32.154-1.421,96.116l35.784-40.311l27.229,70.773l51.19-19.982l41.195,39.428
			l8.758-12.846l-44.002-46.6l-49.261,16.866l-23.366-77.004l-40.67,30.819C78.123,148.058,63.305,130.247,72.686,90.799z"/>
		<polygon fill="#D5E052" points="243.158,222.26 265.084,214.967 247.953,229.674 277.316,221.961 251.699,233.596 271.07,234.6 
			254.223,236.897 272.908,253.164 246.398,241.655 250.334,272.711 240.186,250.473 237.277,267.229 237.277,242.446 
			222.674,273.553 228.775,246.344 204.283,256.971 222.949,241.305 206.105,243.731 226.664,236.823 191.434,233.619 
			226.76,232.971 212.387,211.151 235.422,223.977 228.16,202.25 235.547,217.576 239.283,192.994 240.756,217.662 246.969,207.768 
					"/>
	</g>
</g>
</svg>
