<?xml version="1.0" encoding="utf-8"?>
<!-- Generator: Adobe Illustrator 16.0.0, SVG Export Plug-In . SVG Version: 6.00 Build 0)  -->
<!DOCTYPE svg PUBLIC "-//W3C//DTD SVG 1.1//EN" "http://www.w3.org/Graphics/SVG/1.1/DTD/svg11.dtd">
<svg version="1.1" id="Layer_1" xmlns="http://www.w3.org/2000/svg" xmlns:xlink="http://www.w3.org/1999/xlink" x="0px" y="0px"
	 width="96px" height="96px" viewBox="0 0 96 96" enable-background="new 0 0 96 96" xml:space="preserve">
<ellipse fill="#CAE1DD" cx="46.416" cy="88.957" rx="28.291" ry="4.798"/>
<g id="TeslaBot">
	<g>
		<g>
			<path fill="#57B7DF" d="M44.948,89.479c-0.051-4.147-3.428-7.495-7.587-7.495c-4.161,0-7.536,3.348-7.589,7.495H44.948z"/>
			<g>
				<rect x="35.487" y="75.832" fill="#57B7DF" width="3.746" height="10.765"/>
			</g>
		</g>
		<g>
			<path fill="#57B7DF" d="M65.408,89.479c-0.053-4.147-3.428-7.495-7.59-7.495c-4.158,0-7.535,3.348-7.586,7.495H65.408z"/>
			<g>
				<rect x="55.947" y="75.832" fill="#57B7DF" width="3.746" height="10.765"/>
			</g>
		</g>
		<g>
			<polygon fill="#D5E053" points="41.243,14.853 37.438,8.868 36.522,10.596 32.439,8.213 36.246,14.199 37.16,12.472 			"/>
			<polygon fill="#D5E053" points="61.428,5.994 55.443,9.798 57.17,10.713 54.787,14.797 60.773,10.992 59.047,10.077 			"/>
			<polygon fill="#D5E053" points="50.031,4.283 48.081,4.415 47.955,-0.312 44.873,6.077 46.823,5.943 46.948,10.669 			"/>
		</g>
		<g>
			<path fill="#81B03C" d="M47.589,14.286c-1.828,0-3.314,1.487-3.314,3.314s1.486,3.315,3.314,3.315
				c1.829,0,3.315-1.488,3.315-3.315S49.418,14.286,47.589,14.286z"/>
			<g>
				<rect x="46.726" y="17.6" fill="#81B03C" width="1.729" height="23.723"/>
			</g>
			<g>
				<path fill="#81B03C" d="M56.428,37.479H38.75c-1.035,0-1.874-0.838-1.874-1.873c0-1.035,0.839-1.874,1.874-1.874h17.677
					c1.035,0,1.875,0.839,1.875,1.874C58.303,36.641,57.463,37.479,56.428,37.479z"/>
			</g>
			<g>
				<path fill="#81B03C" d="M54.988,32.026H40.191c-1.034,0-1.873-0.839-1.873-1.873c0-1.035,0.839-1.874,1.873-1.874h14.797
					c1.033,0,1.873,0.839,1.873,1.874C56.861,31.188,56.021,32.026,54.988,32.026z"/>
			</g>
			<g>
				<path fill="#81B03C" d="M53.547,26.575H41.633c-1.034,0-1.873-0.839-1.873-1.873c0-1.035,0.839-1.874,1.873-1.874h11.914
					c1.033,0,1.873,0.839,1.873,1.874C55.42,25.735,54.58,26.575,53.547,26.575z"/>
			</g>
		</g>
		<path fill="#57B7DF" stroke="#57B7DF" stroke-miterlimit="10" d="M65.408,73.006c0,1.561-1.266,2.826-2.826,2.826H32.598
			c-1.561,0-2.826-1.268-2.826-2.826V43.021c0-1.561,1.265-2.826,2.826-2.826h29.984c1.561,0,2.826,1.265,2.826,2.826V73.006
			L65.408,73.006z"/>
	</g>
	<path fill="#FFFFFF" d="M61.357,52.521c0,3.692-2.992,6.688-6.686,6.688h-13.53c-3.692,0-6.686-2.993-6.686-6.688l0,0
		c0-3.693,2.994-6.687,6.686-6.687h13.53C58.365,45.834,61.357,48.828,61.357,52.521L61.357,52.521z"/>
	<g>
		<rect x="47.589" y="49.274" fill="#57B7DF" width="2.643" height="5.188"/>
		<rect x="53.498" y="49.274" fill="#57B7DF" width="2.643" height="5.188"/>
	</g>
</g>
</svg>
