<?xml version="1.0" encoding="utf-8"?>
<!-- Generator: Adobe Illustrator 16.0.0, SVG Export Plug-In . SVG Version: 6.00 Build 0)  -->
<!DOCTYPE svg PUBLIC "-//W3C//DTD SVG 1.1//EN" "http://www.w3.org/Graphics/SVG/1.1/DTD/svg11.dtd">
<svg version="1.1" id="Layer_1" xmlns="http://www.w3.org/2000/svg" xmlns:xlink="http://www.w3.org/1999/xlink" x="0px" y="0px"
	 width="288px" height="1044px" viewBox="0 0 288 1044" enable-background="new 0 0 288 1044" xml:space="preserve">
<g>
	
		<polygon fill="none" stroke="#DBE2E4" stroke-width="3" stroke-linecap="round" stroke-linejoin="round" stroke-miterlimit="10" points="
		54.005,153.204 66.005,156.204 77.005,153.204 88.005,156.204 100.005,153.204 98.005,116.204 87.005,119.204 77.005,116.204 
		67.005,119.204 56.005,116.204 	"/>
	<g>
		
			<line fill="none" stroke="#DBE2E4" stroke-width="3" stroke-linecap="round" stroke-linejoin="round" stroke-miterlimit="10" x1="87.005" y1="126.204" x2="91.005" y2="130.204"/>
		
			<line fill="none" stroke="#DBE2E4" stroke-width="3" stroke-linecap="round" stroke-linejoin="round" stroke-miterlimit="10" x1="87.005" y1="130.204" x2="91.005" y2="126.204"/>
	</g>
	
		<line fill="none" stroke="#DBE2E4" stroke-width="3" stroke-linecap="round" stroke-linejoin="round" stroke-miterlimit="10" x1="62.005" y1="144.204" x2="63.005" y2="143.204"/>
	
		<line fill="none" stroke="#DBE2E4" stroke-width="3" stroke-linecap="round" stroke-linejoin="round" stroke-miterlimit="10" x1="68.005" y1="138.204" x2="69.005" y2="137.204"/>
	
		<line fill="none" stroke="#DBE2E4" stroke-width="3" stroke-linecap="round" stroke-linejoin="round" stroke-miterlimit="10" x1="90.005" y1="133.204" x2="90.005" y2="135.204"/>
	
		<line fill="none" stroke="#DBE2E4" stroke-width="3" stroke-linecap="round" stroke-linejoin="round" stroke-miterlimit="10" x1="81.005" y1="138.204" x2="82.005" y2="139.204"/>
	
		<line fill="none" stroke="#DBE2E4" stroke-width="3" stroke-linecap="round" stroke-linejoin="round" stroke-miterlimit="10" x1="75.005" y1="134.204" x2="77.005" y2="134.204"/>
	
		<line fill="none" stroke="#DBE2E4" stroke-width="3" stroke-linecap="round" stroke-linejoin="round" stroke-miterlimit="10" x1="88.005" y1="141.204" x2="89.005" y2="140.204"/>
</g>
<g>
	
		<polygon fill="none" stroke="#DBE2E4" stroke-width="3" stroke-linecap="round" stroke-linejoin="round" stroke-miterlimit="10" points="
		242,905.111 254,908.111 265,905.111 276,908.111 288,905.111 286,868.111 275,871.111 265,868.111 255,871.111 244,868.111 	"/>
	<g>
		
			<line fill="none" stroke="#DBE2E4" stroke-width="3" stroke-linecap="round" stroke-linejoin="round" stroke-miterlimit="10" x1="275" y1="878.111" x2="279" y2="882.111"/>
		
			<line fill="none" stroke="#DBE2E4" stroke-width="3" stroke-linecap="round" stroke-linejoin="round" stroke-miterlimit="10" x1="275" y1="882.111" x2="279" y2="878.111"/>
	</g>
	
		<line fill="none" stroke="#DBE2E4" stroke-width="3" stroke-linecap="round" stroke-linejoin="round" stroke-miterlimit="10" x1="250" y1="896.111" x2="251" y2="895.111"/>
	
		<line fill="none" stroke="#DBE2E4" stroke-width="3" stroke-linecap="round" stroke-linejoin="round" stroke-miterlimit="10" x1="256" y1="890.111" x2="257" y2="889.111"/>
	
		<line fill="none" stroke="#DBE2E4" stroke-width="3" stroke-linecap="round" stroke-linejoin="round" stroke-miterlimit="10" x1="278" y1="885.111" x2="278" y2="887.111"/>
	
		<line fill="none" stroke="#DBE2E4" stroke-width="3" stroke-linecap="round" stroke-linejoin="round" stroke-miterlimit="10" x1="269" y1="890.111" x2="270" y2="891.111"/>
	
		<line fill="none" stroke="#DBE2E4" stroke-width="3" stroke-linecap="round" stroke-linejoin="round" stroke-miterlimit="10" x1="263" y1="886.111" x2="265" y2="886.111"/>
	
		<line fill="none" stroke="#DBE2E4" stroke-width="3" stroke-linecap="round" stroke-linejoin="round" stroke-miterlimit="10" x1="276" y1="893.111" x2="277" y2="892.111"/>
</g>
<g>
	
		<polygon fill="none" stroke="#DBE2E4" stroke-width="3" stroke-linecap="round" stroke-linejoin="round" stroke-miterlimit="10" points="
		77.005,804.537 54.005,794.537 54.005,810.537 77.005,820.537 	"/>
	
		<polygon fill="none" stroke="#DBE2E4" stroke-width="3" stroke-linecap="round" stroke-linejoin="round" stroke-miterlimit="10" points="
		100.005,794.537 77.005,804.537 77.005,820.537 100.005,810.537 	"/>
	
		<ellipse fill="none" stroke="#DBE2E4" stroke-width="3" stroke-linecap="round" stroke-linejoin="round" stroke-miterlimit="10" cx="77.005" cy="795.537" rx="6" ry="3"/>
	
		<ellipse fill="none" stroke="#DBE2E4" stroke-width="3" stroke-linecap="round" stroke-linejoin="round" stroke-miterlimit="10" cx="77.005" cy="784.537" rx="6" ry="3"/>
	
		<ellipse fill="none" stroke="#DBE2E4" stroke-width="3" stroke-linecap="round" stroke-linejoin="round" stroke-miterlimit="10" cx="91.005" cy="790.537" rx="6" ry="3"/>
	
		<ellipse fill="none" stroke="#DBE2E4" stroke-width="3" stroke-linecap="round" stroke-linejoin="round" stroke-miterlimit="10" cx="64.005" cy="790.537" rx="6" ry="3"/>
	
		<line fill="none" stroke="#DBE2E4" stroke-width="3" stroke-linecap="round" stroke-linejoin="round" stroke-miterlimit="10" x1="59.152" y1="792.299" x2="54.005" y2="794.537"/>
	
		<line fill="none" stroke="#DBE2E4" stroke-width="3" stroke-linecap="round" stroke-linejoin="round" stroke-miterlimit="10" x1="72.48" y1="786.506" x2="68.169" y2="788.379"/>
	
		<line fill="none" stroke="#DBE2E4" stroke-width="3" stroke-linecap="round" stroke-linejoin="round" stroke-miterlimit="10" x1="86.394" y1="788.619" x2="81.527" y2="786.504"/>
	
		<line fill="none" stroke="#DBE2E4" stroke-width="3" stroke-linecap="round" stroke-linejoin="round" stroke-miterlimit="10" x1="100.005" y1="794.537" x2="95.405" y2="792.539"/>
</g>
<g>
	
		<polygon fill="none" stroke="#DBE2E4" stroke-width="3" stroke-linecap="round" stroke-linejoin="round" stroke-miterlimit="10" points="
		78.005,247.093 88.005,243.093 88.005,230.093 78.005,233.093 68.005,230.093 68.005,243.093 	"/>
	
		<polyline fill="none" stroke="#DBE2E4" stroke-width="3" stroke-linecap="round" stroke-linejoin="round" stroke-miterlimit="10" points="
		88.005,230.093 78.005,227.093 68.005,230.093 	"/>
	
		<line fill="none" stroke="#DBE2E4" stroke-width="3" stroke-linecap="round" stroke-linejoin="round" stroke-miterlimit="10" x1="78.005" y1="233.02" x2="78.005" y2="247.02"/>
	
		<polygon fill="none" stroke="#DBE2E4" stroke-width="3" stroke-linecap="round" stroke-linejoin="round" stroke-miterlimit="10" points="
		90.005,264.093 98.005,260.093 98.005,251.093 90.005,254.093 82.005,251.093 82.005,260.093 	"/>
	
		<polyline fill="none" stroke="#DBE2E4" stroke-width="3" stroke-linecap="round" stroke-linejoin="round" stroke-miterlimit="10" points="
		98.005,251.093 90.005,248.093 82.005,251.093 	"/>
	
		<line fill="none" stroke="#DBE2E4" stroke-width="3" stroke-linecap="round" stroke-linejoin="round" stroke-miterlimit="10" x1="90.005" y1="254.02" x2="90.005" y2="264.02"/>
	
		<polygon fill="none" stroke="#DBE2E4" stroke-width="3" stroke-linecap="round" stroke-linejoin="round" stroke-miterlimit="10" points="
		66.005,273.093 78.005,269.093 78.005,253.093 66.005,257.093 54.005,253.093 54.005,269.093 	"/>
	
		<polyline fill="none" stroke="#DBE2E4" stroke-width="3" stroke-linecap="round" stroke-linejoin="round" stroke-miterlimit="10" points="
		78.005,253.093 66.005,249.093 54.005,253.093 	"/>
	
		<line fill="none" stroke="#DBE2E4" stroke-width="3" stroke-linecap="round" stroke-linejoin="round" stroke-miterlimit="10" x1="66.005" y1="257.02" x2="66.005" y2="273.02"/>
</g>
<g>
	
		<polygon fill="none" stroke="#DBE2E4" stroke-width="3" stroke-linecap="round" stroke-linejoin="round" stroke-miterlimit="10" points="
		268,771.222 278,767.222 278,754.222 268,757.222 258,754.222 258,767.222 	"/>
	
		<polyline fill="none" stroke="#DBE2E4" stroke-width="3" stroke-linecap="round" stroke-linejoin="round" stroke-miterlimit="10" points="
		278,754.222 268,751.222 258,754.222 	"/>
	
		<line fill="none" stroke="#DBE2E4" stroke-width="3" stroke-linecap="round" stroke-linejoin="round" stroke-miterlimit="10" x1="268" y1="757.148" x2="268" y2="771.148"/>
	
		<polygon fill="none" stroke="#DBE2E4" stroke-width="3" stroke-linecap="round" stroke-linejoin="round" stroke-miterlimit="10" points="
		280,788.222 288,784.222 288,775.222 280,778.222 272,775.222 272,784.222 	"/>
	
		<polyline fill="none" stroke="#DBE2E4" stroke-width="3" stroke-linecap="round" stroke-linejoin="round" stroke-miterlimit="10" points="
		288,775.222 280,772.222 272,775.222 	"/>
	
		<line fill="none" stroke="#DBE2E4" stroke-width="3" stroke-linecap="round" stroke-linejoin="round" stroke-miterlimit="10" x1="280" y1="778.148" x2="280" y2="788.148"/>
	
		<polygon fill="none" stroke="#DBE2E4" stroke-width="3" stroke-linecap="round" stroke-linejoin="round" stroke-miterlimit="10" points="
		256,797.222 268,793.222 268,777.222 256,781.222 244,777.222 244,793.222 	"/>
	
		<polyline fill="none" stroke="#DBE2E4" stroke-width="3" stroke-linecap="round" stroke-linejoin="round" stroke-miterlimit="10" points="
		268,777.222 256,773.222 244,777.222 	"/>
	
		<line fill="none" stroke="#DBE2E4" stroke-width="3" stroke-linecap="round" stroke-linejoin="round" stroke-miterlimit="10" x1="256" y1="781.148" x2="256" y2="797.148"/>
</g>
<g>
	
		<circle fill="none" stroke="#DBE2E4" stroke-width="3" stroke-linecap="round" stroke-linejoin="round" stroke-miterlimit="10" cx="70.005" cy="686.648" r="16"/>
	
		<line fill="none" stroke="#DBE2E4" stroke-width="3" stroke-linecap="round" stroke-linejoin="round" stroke-miterlimit="10" x1="65.005" y1="706.648" x2="75.005" y2="706.648"/>
	
		<line fill="none" stroke="#DBE2E4" stroke-width="3" stroke-linecap="round" stroke-linejoin="round" stroke-miterlimit="10" x1="65.005" y1="710.648" x2="75.005" y2="710.648"/>
	
		<line fill="none" stroke="#DBE2E4" stroke-width="3" stroke-linecap="round" stroke-linejoin="round" stroke-miterlimit="10" x1="65.005" y1="714.648" x2="75.005" y2="714.648"/>
	
		<line fill="none" stroke="#DBE2E4" stroke-width="3" stroke-linecap="round" stroke-linejoin="round" stroke-miterlimit="10" x1="70.005" y1="714.648" x2="70.005" y2="716.648"/>
	
		<polyline fill="none" stroke="#DBE2E4" stroke-width="3" stroke-linecap="round" stroke-linejoin="round" stroke-miterlimit="10" points="
		76.005,692.648 73.005,695.648 70.005,692.648 67.005,695.648 64.505,693.148 	"/>
	
		<line fill="none" stroke="#DBE2E4" stroke-width="3" stroke-linecap="round" stroke-linejoin="round" stroke-miterlimit="10" x1="70.005" y1="692.648" x2="70.005" y2="702.648"/>
</g>
<g>
	
		<circle fill="none" stroke="#DBE2E4" stroke-width="3" stroke-linecap="round" stroke-linejoin="round" stroke-miterlimit="10" cx="268.25" cy="314.589" r="16"/>
	
		<line fill="none" stroke="#DBE2E4" stroke-width="3" stroke-linecap="round" stroke-linejoin="round" stroke-miterlimit="10" x1="263.25" y1="334.589" x2="273.25" y2="334.589"/>
	
		<line fill="none" stroke="#DBE2E4" stroke-width="3" stroke-linecap="round" stroke-linejoin="round" stroke-miterlimit="10" x1="263.25" y1="338.589" x2="273.25" y2="338.589"/>
	
		<line fill="none" stroke="#DBE2E4" stroke-width="3" stroke-linecap="round" stroke-linejoin="round" stroke-miterlimit="10" x1="263.25" y1="342.589" x2="273.25" y2="342.589"/>
	
		<line fill="none" stroke="#DBE2E4" stroke-width="3" stroke-linecap="round" stroke-linejoin="round" stroke-miterlimit="10" x1="268.25" y1="342.589" x2="268.25" y2="344.589"/>
	
		<polyline fill="none" stroke="#DBE2E4" stroke-width="3" stroke-linecap="round" stroke-linejoin="round" stroke-miterlimit="10" points="
		274.25,320.589 271.25,323.589 268.25,320.589 265.25,323.589 262.75,321.089 	"/>
	
		<line fill="none" stroke="#DBE2E4" stroke-width="3" stroke-linecap="round" stroke-linejoin="round" stroke-miterlimit="10" x1="268.25" y1="320.589" x2="268.25" y2="330.589"/>
</g>
<g>
	<path fill="none" stroke="#DBE2E4" stroke-width="3" stroke-linecap="round" stroke-linejoin="round" stroke-miterlimit="10" d="
		M79.005,63.272h5.005c6.073,0,10.995-5.302,10.995-11.378V29.272"/>
	
		<line fill="none" stroke="#DBE2E4" stroke-width="3" stroke-linecap="round" stroke-linejoin="round" stroke-miterlimit="10" x1="91.005" y1="46.272" x2="91.005" y2="50.272"/>
	
		<line fill="none" stroke="#DBE2E4" stroke-width="3" stroke-linecap="round" stroke-linejoin="round" stroke-miterlimit="10" x1="57.005" y1="46.272" x2="57.005" y2="50.272"/>
	
		<circle fill="none" stroke="#DBE2E4" stroke-width="3" stroke-linecap="round" stroke-miterlimit="10" cx="74.01" cy="62.894" r="5"/>
	
		<line fill="none" stroke="#DBE2E4" stroke-width="3" stroke-linecap="round" stroke-linejoin="round" stroke-miterlimit="10" x1="95.005" y1="23.272" x2="95.005" y2="25.272"/>
	<path fill="none" stroke="#DBE2E4" stroke-width="3" stroke-linecap="round" stroke-linejoin="round" stroke-miterlimit="10" d="
		M90.005,49.894c0,2.761-2.235,5.378-4.995,5.378h-4c-3.867,0-7.005-3.511-7.005-7.378v-8.622h7.005
		c4.969,0,8.995,3.651,8.995,8.622V49.894z"/>
	<path fill="none" stroke="#DBE2E4" stroke-width="3" stroke-linecap="round" stroke-linejoin="round" stroke-miterlimit="10" d="
		M58.005,49.894c0,2.761,2.242,5.378,5.005,5.378h4c3.865,0,6.995-3.511,6.995-7.378v-8.622H67.01c-4.973,0-9.005,3.651-9.005,8.622
		V49.894z"/>
	
		<line fill="none" stroke="#DBE2E4" stroke-width="3" stroke-linecap="round" stroke-miterlimit="10" x1="69.005" y1="63.272" x2="65.005" y2="63.272"/>
</g>
<g>
	<path fill="none" stroke="#DBE2E4" stroke-width="3" stroke-linecap="round" stroke-linejoin="round" stroke-miterlimit="10" d="
		M269,238.466h5.005c6.073,0,10.995-5.302,10.995-11.378v-22.622"/>
	
		<line fill="none" stroke="#DBE2E4" stroke-width="3" stroke-linecap="round" stroke-linejoin="round" stroke-miterlimit="10" x1="281" y1="221.466" x2="281" y2="225.466"/>
	
		<line fill="none" stroke="#DBE2E4" stroke-width="3" stroke-linecap="round" stroke-linejoin="round" stroke-miterlimit="10" x1="247" y1="221.466" x2="247" y2="225.466"/>
	
		<circle fill="none" stroke="#DBE2E4" stroke-width="3" stroke-linecap="round" stroke-miterlimit="10" cx="264.005" cy="238.088" r="5"/>
	
		<line fill="none" stroke="#DBE2E4" stroke-width="3" stroke-linecap="round" stroke-linejoin="round" stroke-miterlimit="10" x1="285" y1="198.466" x2="285" y2="200.466"/>
	<path fill="none" stroke="#DBE2E4" stroke-width="3" stroke-linecap="round" stroke-linejoin="round" stroke-miterlimit="10" d="
		M280,225.088c0,2.761-2.234,5.378-4.995,5.378h-4c-3.866,0-7.005-3.511-7.005-7.378v-8.622h7.005c4.97,0,8.995,3.651,8.995,8.622
		V225.088z"/>
	<path fill="none" stroke="#DBE2E4" stroke-width="3" stroke-linecap="round" stroke-linejoin="round" stroke-miterlimit="10" d="
		M248,225.088c0,2.761,2.242,5.378,5.005,5.378h4c3.865,0,6.995-3.511,6.995-7.378v-8.622h-6.995c-4.973,0-9.005,3.651-9.005,8.622
		V225.088z"/>
	
		<line fill="none" stroke="#DBE2E4" stroke-width="3" stroke-linecap="round" stroke-miterlimit="10" x1="259" y1="238.466" x2="255" y2="238.466"/>
</g>
<g>
	<path fill="none" stroke="#DBE2E4" stroke-width="3" stroke-linecap="round" stroke-linejoin="round" stroke-miterlimit="10" d="
		M272,681.333h5.005c6.073,0,10.995-5.302,10.995-11.378v-22.622"/>
	
		<line fill="none" stroke="#DBE2E4" stroke-width="3" stroke-linecap="round" stroke-linejoin="round" stroke-miterlimit="10" x1="284" y1="664.333" x2="284" y2="668.333"/>
	
		<line fill="none" stroke="#DBE2E4" stroke-width="3" stroke-linecap="round" stroke-linejoin="round" stroke-miterlimit="10" x1="250" y1="664.333" x2="250" y2="668.333"/>
	
		<circle fill="none" stroke="#DBE2E4" stroke-width="3" stroke-linecap="round" stroke-miterlimit="10" cx="267.005" cy="680.955" r="5"/>
	
		<line fill="none" stroke="#DBE2E4" stroke-width="3" stroke-linecap="round" stroke-linejoin="round" stroke-miterlimit="10" x1="288" y1="641.333" x2="288" y2="643.333"/>
	<path fill="none" stroke="#DBE2E4" stroke-width="3" stroke-linecap="round" stroke-linejoin="round" stroke-miterlimit="10" d="
		M283,667.955c0,2.761-2.234,5.378-4.995,5.378h-4c-3.866,0-7.005-3.511-7.005-7.378v-8.622h7.005c4.97,0,8.995,3.651,8.995,8.622
		V667.955z"/>
	<path fill="none" stroke="#DBE2E4" stroke-width="3" stroke-linecap="round" stroke-linejoin="round" stroke-miterlimit="10" d="
		M251,667.955c0,2.761,2.242,5.378,5.005,5.378h4c3.865,0,6.995-3.511,6.995-7.378v-8.622h-6.995c-4.973,0-9.005,3.651-9.005,8.622
		V667.955z"/>
	
		<line fill="none" stroke="#DBE2E4" stroke-width="3" stroke-linecap="round" stroke-miterlimit="10" x1="262" y1="681.333" x2="258" y2="681.333"/>
</g>
<g>
	
		<polygon fill="none" stroke="#DBE2E4" stroke-width="3" stroke-linecap="round" stroke-linejoin="round" stroke-miterlimit="10" points="
		88.005,930.426 88.005,922.426 80.005,922.426 80.005,930.426 72.005,930.426 72.005,938.426 96.005,938.426 96.005,930.426 	"/>
	
		<polygon fill="none" stroke="#DBE2E4" stroke-width="3" stroke-linecap="round" stroke-linejoin="round" stroke-miterlimit="10" points="
		94.005,900.426 94.005,892.426 86.005,892.426 86.005,908.426 94.005,908.426 94.005,916.426 102.005,916.426 102.005,900.426 	"/>
	
		<polygon fill="none" stroke="#DBE2E4" stroke-width="3" stroke-linecap="round" stroke-linejoin="round" stroke-miterlimit="10" points="
		64.005,906.426 64.005,898.426 56.005,898.426 56.005,914.426 80.005,914.426 80.005,906.426 	"/>
	
		<polygon fill="none" stroke="#DBE2E4" stroke-width="3" stroke-linecap="round" stroke-linejoin="round" stroke-miterlimit="10" points="
		56.005,914.426 56.005,922.426 72.005,922.426 72.005,930.426 80.005,930.426 80.005,914.426 	"/>
	
		<rect x="56.005" y="922.426" fill="none" stroke="#DBE2E4" stroke-width="3" stroke-linecap="round" stroke-linejoin="round" stroke-miterlimit="10" width="16" height="16"/>
</g>
<g>
	<polygon fill="none" stroke="#DBE2E4" stroke-width="3" stroke-linejoin="round" stroke-miterlimit="10" points="86.005,577.76 
		66.005,605.76 70.005,587.76 54.005,587.76 74.005,559.76 70.005,577.76 	"/>
</g>
<g>
	<polygon fill="none" stroke="#DBE2E4" stroke-width="3" stroke-linejoin="round" stroke-miterlimit="10" points="284,23.957 
		264,51.957 268,33.957 252,33.957 272,5.957 268,23.957 	"/>
</g>
<g>
	<polygon fill="none" stroke="#DBE2E4" stroke-width="3" stroke-linejoin="round" stroke-miterlimit="10" points="288,436.555 
		268,464.555 272,446.555 256,446.555 276,418.555 272,436.555 	"/>
</g>
<g>
	
		<line fill="none" stroke="#DBE2E4" stroke-width="3" stroke-linecap="round" stroke-miterlimit="10" x1="242" y1="1019" x2="268" y2="993"/>
	
		<line fill="none" stroke="#DBE2E4" stroke-width="3" stroke-linecap="round" stroke-miterlimit="10" x1="282" y1="986" x2="288" y2="986"/>
	
		<line fill="none" stroke="#DBE2E4" stroke-width="3" stroke-linecap="round" stroke-miterlimit="10" x1="280" y1="981" x2="284" y2="977"/>
	
		<line fill="none" stroke="#DBE2E4" stroke-width="3" stroke-linecap="round" stroke-miterlimit="10" x1="275" y1="979" x2="275" y2="973"/>
	
		<line fill="none" stroke="#DBE2E4" stroke-width="3" stroke-linecap="round" stroke-miterlimit="10" x1="270" y1="981" x2="266" y2="977"/>
	
		<line fill="none" stroke="#DBE2E4" stroke-width="3" stroke-linecap="round" stroke-miterlimit="10" x1="268" y1="986" x2="262" y2="986"/>
	
		<line fill="none" stroke="#DBE2E4" stroke-width="3" stroke-linecap="round" stroke-miterlimit="10" x1="275" y1="993" x2="275" y2="999"/>
	
		<line fill="none" stroke="#DBE2E4" stroke-width="3" stroke-linecap="round" stroke-miterlimit="10" x1="280" y1="991" x2="284" y2="995"/>
</g>
<g>
	
		<circle fill="none" stroke="#DBE2E4" stroke-width="3" stroke-linecap="round" stroke-linejoin="round" stroke-miterlimit="10" cx="76.005" cy="456.871" r="8"/>
	
		<line fill="none" stroke="#DBE2E4" stroke-width="3" stroke-linecap="round" stroke-linejoin="round" stroke-miterlimit="10" x1="76.005" y1="464.871" x2="76.005" y2="488.871"/>
	<path fill="none" stroke="#DBE2E4" stroke-width="3" stroke-linecap="round" stroke-linejoin="round" stroke-miterlimit="10" d="
		M76.005,452.871c2.209,0,4,1.791,4,4"/>
	<path fill="none" stroke="#DBE2E4" stroke-width="3" stroke-linecap="round" stroke-linejoin="round" stroke-miterlimit="10" d="
		M82.005,486.965c10.299,0.396,18,1.993,18,3.903c0,2.209-10.298,4-23,4c-12.702,0-23-1.791-23-4c0-1.779,6.7-3.291,15.956-3.811"/>
</g>
<g>
	
		<circle fill="none" stroke="#DBE2E4" stroke-width="3" stroke-linecap="round" stroke-linejoin="round" stroke-miterlimit="10" cx="263" cy="112.889" r="8"/>
	
		<line fill="none" stroke="#DBE2E4" stroke-width="3" stroke-linecap="round" stroke-linejoin="round" stroke-miterlimit="10" x1="263" y1="120.889" x2="263" y2="144.889"/>
	<path fill="none" stroke="#DBE2E4" stroke-width="3" stroke-linecap="round" stroke-linejoin="round" stroke-miterlimit="10" d="
		M263,108.889c2.209,0,4,1.791,4,4"/>
	<path fill="none" stroke="#DBE2E4" stroke-width="3" stroke-linecap="round" stroke-linejoin="round" stroke-miterlimit="10" d="
		M269,142.983c10.299,0.397,18,1.995,18,3.905c0,2.209-10.298,4-23,4s-23-1.791-23-4c0-1.781,6.7-3.291,15.956-3.809"/>
</g>
<g>
	
		<circle fill="none" stroke="#DBE2E4" stroke-width="3" stroke-linecap="round" stroke-linejoin="round" stroke-miterlimit="10" cx="264" cy="537.444" r="8"/>
	
		<line fill="none" stroke="#DBE2E4" stroke-width="3" stroke-linecap="round" stroke-linejoin="round" stroke-miterlimit="10" x1="264" y1="545.444" x2="264" y2="569.444"/>
	<path fill="none" stroke="#DBE2E4" stroke-width="3" stroke-linecap="round" stroke-linejoin="round" stroke-miterlimit="10" d="
		M264,533.444c2.209,0,4,1.791,4,4"/>
	<path fill="none" stroke="#DBE2E4" stroke-width="3" stroke-linecap="round" stroke-linejoin="round" stroke-miterlimit="10" d="
		M270,567.539c10.299,0.396,18,1.995,18,3.905c0,2.209-10.298,4-23,4s-23-1.791-23-4c0-1.781,6.7-3.291,15.956-3.812"/>
</g>
<g>
	
		<polygon fill="none" stroke="#DBE2E4" stroke-width="3" stroke-linecap="round" stroke-linejoin="round" stroke-miterlimit="10" points="
		154.5,418.843 166.5,421.843 177.5,418.843 188.5,421.843 200.5,418.843 198.5,381.844 187.5,384.844 177.5,381.844 167.5,384.844 
		156.5,381.844 	"/>
	<g>
		
			<line fill="none" stroke="#DBE2E4" stroke-width="3" stroke-linecap="round" stroke-linejoin="round" stroke-miterlimit="10" x1="187.5" y1="391.844" x2="191.5" y2="395.844"/>
		
			<line fill="none" stroke="#DBE2E4" stroke-width="3" stroke-linecap="round" stroke-linejoin="round" stroke-miterlimit="10" x1="187.5" y1="395.844" x2="191.5" y2="391.844"/>
	</g>
	
		<line fill="none" stroke="#DBE2E4" stroke-width="3" stroke-linecap="round" stroke-linejoin="round" stroke-miterlimit="10" x1="162.5" y1="409.843" x2="163.5" y2="408.843"/>
	
		<line fill="none" stroke="#DBE2E4" stroke-width="3" stroke-linecap="round" stroke-linejoin="round" stroke-miterlimit="10" x1="168.5" y1="403.844" x2="169.5" y2="402.844"/>
	
		<line fill="none" stroke="#DBE2E4" stroke-width="3" stroke-linecap="round" stroke-linejoin="round" stroke-miterlimit="10" x1="190.5" y1="398.844" x2="190.5" y2="400.844"/>
	
		<line fill="none" stroke="#DBE2E4" stroke-width="3" stroke-linecap="round" stroke-linejoin="round" stroke-miterlimit="10" x1="181.5" y1="403.844" x2="182.5" y2="404.843"/>
	
		<line fill="none" stroke="#DBE2E4" stroke-width="3" stroke-linecap="round" stroke-linejoin="round" stroke-miterlimit="10" x1="175.5" y1="399.844" x2="177.5" y2="399.844"/>
	
		<line fill="none" stroke="#DBE2E4" stroke-width="3" stroke-linecap="round" stroke-linejoin="round" stroke-miterlimit="10" x1="188.5" y1="406.843" x2="189.5" y2="405.843"/>
</g>
<g>
	
		<polygon fill="none" stroke="#DBE2E4" stroke-width="3" stroke-linecap="round" stroke-linejoin="round" stroke-miterlimit="10" points="
		178.5,512.733 188.5,508.733 188.5,495.733 178.5,498.733 168.5,495.733 168.5,508.733 	"/>
	
		<polyline fill="none" stroke="#DBE2E4" stroke-width="3" stroke-linecap="round" stroke-linejoin="round" stroke-miterlimit="10" points="
		188.5,495.733 178.5,492.733 168.5,495.733 	"/>
	
		<line fill="none" stroke="#DBE2E4" stroke-width="3" stroke-linecap="round" stroke-linejoin="round" stroke-miterlimit="10" x1="178.5" y1="498.659" x2="178.5" y2="512.659"/>
	
		<polygon fill="none" stroke="#DBE2E4" stroke-width="3" stroke-linecap="round" stroke-linejoin="round" stroke-miterlimit="10" points="
		190.5,529.732 198.5,525.732 198.5,516.733 190.5,519.733 182.5,516.733 182.5,525.732 	"/>
	
		<polyline fill="none" stroke="#DBE2E4" stroke-width="3" stroke-linecap="round" stroke-linejoin="round" stroke-miterlimit="10" points="
		198.5,516.733 190.5,513.733 182.5,516.733 	"/>
	
		<line fill="none" stroke="#DBE2E4" stroke-width="3" stroke-linecap="round" stroke-linejoin="round" stroke-miterlimit="10" x1="190.5" y1="519.659" x2="190.5" y2="529.66"/>
	
		<polygon fill="none" stroke="#DBE2E4" stroke-width="3" stroke-linecap="round" stroke-linejoin="round" stroke-miterlimit="10" points="
		166.5,538.732 178.5,534.732 178.5,518.733 166.5,522.732 154.5,518.733 154.5,534.732 	"/>
	
		<polyline fill="none" stroke="#DBE2E4" stroke-width="3" stroke-linecap="round" stroke-linejoin="round" stroke-miterlimit="10" points="
		178.5,518.733 166.5,514.733 154.5,518.733 	"/>
	
		<line fill="none" stroke="#DBE2E4" stroke-width="3" stroke-linecap="round" stroke-linejoin="round" stroke-miterlimit="10" x1="166.5" y1="522.66" x2="166.5" y2="538.66"/>
</g>
<g>
	
		<line fill="none" stroke="#DBE2E4" stroke-width="3" stroke-linecap="round" stroke-miterlimit="10" x1="154.5" y1="316.955" x2="180.5" y2="290.955"/>
	
		<line fill="none" stroke="#DBE2E4" stroke-width="3" stroke-linecap="round" stroke-miterlimit="10" x1="194.5" y1="283.955" x2="200.5" y2="283.955"/>
	
		<line fill="none" stroke="#DBE2E4" stroke-width="3" stroke-linecap="round" stroke-miterlimit="10" x1="192.5" y1="278.955" x2="196.5" y2="274.955"/>
	
		<line fill="none" stroke="#DBE2E4" stroke-width="3" stroke-linecap="round" stroke-miterlimit="10" x1="187.5" y1="276.955" x2="187.5" y2="270.955"/>
	
		<line fill="none" stroke="#DBE2E4" stroke-width="3" stroke-linecap="round" stroke-miterlimit="10" x1="182.5" y1="278.955" x2="178.5" y2="274.955"/>
	
		<line fill="none" stroke="#DBE2E4" stroke-width="3" stroke-linecap="round" stroke-miterlimit="10" x1="180.5" y1="283.955" x2="174.5" y2="283.955"/>
	
		<line fill="none" stroke="#DBE2E4" stroke-width="3" stroke-linecap="round" stroke-miterlimit="10" x1="187.5" y1="290.955" x2="187.5" y2="296.955"/>
	
		<line fill="none" stroke="#DBE2E4" stroke-width="3" stroke-linecap="round" stroke-miterlimit="10" x1="192.5" y1="288.955" x2="196.5" y2="292.955"/>
</g>
<g>
	
		<polygon fill="none" stroke="#DBE2E4" stroke-width="3" stroke-linecap="round" stroke-linejoin="round" stroke-miterlimit="10" points="
		176.5,88.622 153.5,78.622 153.5,94.622 176.5,104.622 	"/>
	
		<polygon fill="none" stroke="#DBE2E4" stroke-width="3" stroke-linecap="round" stroke-linejoin="round" stroke-miterlimit="10" points="
		199.5,78.622 176.5,88.622 176.5,104.622 199.5,94.622 	"/>
	
		<ellipse fill="none" stroke="#DBE2E4" stroke-width="3" stroke-linecap="round" stroke-linejoin="round" stroke-miterlimit="10" cx="176.5" cy="79.622" rx="6" ry="3"/>
	
		<ellipse fill="none" stroke="#DBE2E4" stroke-width="3" stroke-linecap="round" stroke-linejoin="round" stroke-miterlimit="10" cx="176.5" cy="68.622" rx="6" ry="3"/>
	
		<ellipse fill="none" stroke="#DBE2E4" stroke-width="3" stroke-linecap="round" stroke-linejoin="round" stroke-miterlimit="10" cx="190.5" cy="74.622" rx="6" ry="3"/>
	
		<ellipse fill="none" stroke="#DBE2E4" stroke-width="3" stroke-linecap="round" stroke-linejoin="round" stroke-miterlimit="10" cx="163.5" cy="74.622" rx="6" ry="3"/>
	
		<line fill="none" stroke="#DBE2E4" stroke-width="3" stroke-linecap="round" stroke-linejoin="round" stroke-miterlimit="10" x1="158.646" y1="76.384" x2="153.5" y2="78.622"/>
	
		<line fill="none" stroke="#DBE2E4" stroke-width="3" stroke-linecap="round" stroke-linejoin="round" stroke-miterlimit="10" x1="171.975" y1="70.591" x2="167.664" y2="72.464"/>
	
		<line fill="none" stroke="#DBE2E4" stroke-width="3" stroke-linecap="round" stroke-linejoin="round" stroke-miterlimit="10" x1="185.889" y1="72.704" x2="181.021" y2="70.589"/>
	
		<line fill="none" stroke="#DBE2E4" stroke-width="3" stroke-linecap="round" stroke-linejoin="round" stroke-miterlimit="10" x1="199.5" y1="78.622" x2="194.9" y2="76.624"/>
</g>
<g>
	
		<circle fill="none" stroke="#DBE2E4" stroke-width="3" stroke-linecap="round" stroke-linejoin="round" stroke-miterlimit="10" cx="167.5" cy="932.965" r="16"/>
	
		<line fill="none" stroke="#DBE2E4" stroke-width="3" stroke-linecap="round" stroke-linejoin="round" stroke-miterlimit="10" x1="162.5" y1="952.965" x2="172.5" y2="952.965"/>
	
		<line fill="none" stroke="#DBE2E4" stroke-width="3" stroke-linecap="round" stroke-linejoin="round" stroke-miterlimit="10" x1="162.5" y1="956.965" x2="172.5" y2="956.965"/>
	
		<line fill="none" stroke="#DBE2E4" stroke-width="3" stroke-linecap="round" stroke-linejoin="round" stroke-miterlimit="10" x1="162.5" y1="960.965" x2="172.5" y2="960.965"/>
	
		<line fill="none" stroke="#DBE2E4" stroke-width="3" stroke-linecap="round" stroke-linejoin="round" stroke-miterlimit="10" x1="167.5" y1="960.965" x2="167.5" y2="962.965"/>
	
		<polyline fill="none" stroke="#DBE2E4" stroke-width="3" stroke-linecap="round" stroke-linejoin="round" stroke-miterlimit="10" points="
		173.5,938.965 170.5,941.965 167.5,938.965 164.5,941.965 162,939.465 	"/>
	
		<line fill="none" stroke="#DBE2E4" stroke-width="3" stroke-linecap="round" stroke-linejoin="round" stroke-miterlimit="10" x1="167.5" y1="938.965" x2="167.5" y2="948.965"/>
</g>
<g>
	
		<polygon fill="none" stroke="#DBE2E4" stroke-width="3" stroke-linecap="round" stroke-linejoin="round" stroke-miterlimit="10" points="
		187.5,214.511 187.5,206.511 179.5,206.511 179.5,214.511 171.5,214.511 171.5,222.511 195.5,222.511 195.5,214.511 	"/>
	
		<polygon fill="none" stroke="#DBE2E4" stroke-width="3" stroke-linecap="round" stroke-linejoin="round" stroke-miterlimit="10" points="
		193.5,184.511 193.5,176.511 185.5,176.511 185.5,192.511 193.5,192.511 193.5,200.511 201.5,200.511 201.5,184.511 	"/>
	
		<polygon fill="none" stroke="#DBE2E4" stroke-width="3" stroke-linecap="round" stroke-linejoin="round" stroke-miterlimit="10" points="
		163.5,190.511 163.5,182.511 155.5,182.511 155.5,198.511 179.5,198.511 179.5,190.511 	"/>
	
		<polygon fill="none" stroke="#DBE2E4" stroke-width="3" stroke-linecap="round" stroke-linejoin="round" stroke-miterlimit="10" points="
		155.5,198.511 155.5,206.511 171.5,206.511 171.5,214.511 179.5,214.511 179.5,198.511 	"/>
	
		<rect x="155.5" y="206.511" fill="none" stroke="#DBE2E4" stroke-width="3" stroke-linecap="round" stroke-linejoin="round" stroke-miterlimit="10" width="16" height="16"/>
</g>
<g>
	<polygon fill="none" stroke="#DBE2E4" stroke-width="3" stroke-linejoin="round" stroke-miterlimit="10" points="183.5,824.076 
		163.5,852.076 167.5,834.076 151.5,834.076 171.5,806.076 167.5,824.076 	"/>
</g>
<g>
	
		<circle fill="none" stroke="#DBE2E4" stroke-width="3" stroke-linecap="round" stroke-linejoin="round" stroke-miterlimit="10" cx="173.5" cy="703.188" r="8"/>
	
		<line fill="none" stroke="#DBE2E4" stroke-width="3" stroke-linecap="round" stroke-linejoin="round" stroke-miterlimit="10" x1="173.5" y1="711.188" x2="173.5" y2="735.188"/>
	<path fill="none" stroke="#DBE2E4" stroke-width="3" stroke-linecap="round" stroke-linejoin="round" stroke-miterlimit="10" d="
		M173.5,699.188c2.209,0,4,1.791,4,4"/>
	<path fill="none" stroke="#DBE2E4" stroke-width="3" stroke-linecap="round" stroke-linejoin="round" stroke-miterlimit="10" d="
		M179.5,733.283c10.299,0.395,18,1.994,18,3.904c0,2.209-10.298,4-23,4s-23-1.791-23-4c0-1.781,6.7-3.291,15.956-3.812"/>
</g>
<g>
	<path fill="none" stroke="#DBE2E4" stroke-width="3" stroke-linecap="round" stroke-linejoin="round" stroke-miterlimit="10" d="
		M77.005,361.982v-10h-10v10l-16,20c0,2.209,1.794,4,4,4h34c2.21,0,4-1.791,4-4L77.005,361.982z"/>
	
		<line fill="none" stroke="#DBE2E4" stroke-width="3" stroke-linecap="round" stroke-linejoin="round" stroke-miterlimit="10" x1="64.005" y1="351.982" x2="80.005" y2="351.982"/>
	
		<circle fill="none" stroke="#DBE2E4" stroke-width="3" stroke-linecap="round" stroke-linejoin="round" stroke-miterlimit="10" cx="73.005" cy="343.982" r="4"/>
	
		<circle fill="none" stroke="#DBE2E4" stroke-width="3" stroke-linecap="round" stroke-linejoin="round" stroke-miterlimit="10" cx="84.005" cy="346.982" r="1"/>
	
		<circle fill="none" stroke="#DBE2E4" stroke-width="3" stroke-linecap="round" stroke-linejoin="round" stroke-miterlimit="10" cx="60.005" cy="345.982" r="2"/>
	
		<line fill="none" stroke="#DBE2E4" stroke-width="3" stroke-linecap="round" stroke-linejoin="round" stroke-miterlimit="10" x1="60.588" y1="369.982" x2="83.338" y2="369.982"/>
</g>
<g>
	<path fill="none" stroke="#DBE2E4" stroke-width="3" stroke-linecap="round" stroke-linejoin="round" stroke-miterlimit="10" d="
		M176.5,625.621v-10h-10v10l-16,20c0,2.209,1.794,4,4,4h34c2.21,0,4-1.791,4-4L176.5,625.621z"/>
	
		<line fill="none" stroke="#DBE2E4" stroke-width="3" stroke-linecap="round" stroke-linejoin="round" stroke-miterlimit="10" x1="163.5" y1="615.621" x2="179.5" y2="615.621"/>
	
		<circle fill="none" stroke="#DBE2E4" stroke-width="3" stroke-linecap="round" stroke-linejoin="round" stroke-miterlimit="10" cx="172.5" cy="607.621" r="4"/>
	
		<circle fill="none" stroke="#DBE2E4" stroke-width="3" stroke-linecap="round" stroke-linejoin="round" stroke-miterlimit="10" cx="183.5" cy="610.621" r="1"/>
	
		<circle fill="none" stroke="#DBE2E4" stroke-width="3" stroke-linecap="round" stroke-linejoin="round" stroke-miterlimit="10" cx="159.5" cy="609.621" r="2"/>
	
		<line fill="none" stroke="#DBE2E4" stroke-width="3" stroke-linecap="round" stroke-linejoin="round" stroke-miterlimit="10" x1="160.083" y1="633.621" x2="182.833" y2="633.621"/>
</g>
<g>
	<path fill="none" stroke="#DBE2E4" stroke-width="3" stroke-linecap="round" stroke-linejoin="round" stroke-miterlimit="10" d="
		M75.005,1005.314v-10h-10v10l-16,20c0,2.209,1.794,4,4,4h34c2.21,0,4-1.791,4-4L75.005,1005.314z"/>
	
		<line fill="none" stroke="#DBE2E4" stroke-width="3" stroke-linecap="round" stroke-linejoin="round" stroke-miterlimit="10" x1="62.005" y1="995.314" x2="78.005" y2="995.314"/>
	
		<circle fill="none" stroke="#DBE2E4" stroke-width="3" stroke-linecap="round" stroke-linejoin="round" stroke-miterlimit="10" cx="71.005" cy="987.314" r="4"/>
	
		<circle fill="none" stroke="#DBE2E4" stroke-width="3" stroke-linecap="round" stroke-linejoin="round" stroke-miterlimit="10" cx="82.005" cy="990.314" r="1"/>
	
		<circle fill="none" stroke="#DBE2E4" stroke-width="3" stroke-linecap="round" stroke-linejoin="round" stroke-miterlimit="10" cx="58.005" cy="989.314" r="2"/>
	
		<line fill="none" stroke="#DBE2E4" stroke-width="3" stroke-linecap="round" stroke-linejoin="round" stroke-miterlimit="10" x1="58.588" y1="1013.314" x2="81.338" y2="1013.314"/>
</g>
</svg>
