<?xml version="1.0" encoding="utf-8"?>
<!-- Generator: Adobe Illustrator 16.0.0, SVG Export Plug-In . SVG Version: 6.00 Build 0)  -->
<!DOCTYPE svg PUBLIC "-//W3C//DTD SVG 1.1//EN" "http://www.w3.org/Graphics/SVG/1.1/DTD/svg11.dtd">
<svg version="1.1" id="Layer_1" xmlns="http://www.w3.org/2000/svg" xmlns:xlink="http://www.w3.org/1999/xlink" x="0px" y="0px"
	 width="286.25px" height="1044px" viewBox="0 0 286.25 1044" enable-background="new 0 0 286.25 1044" xml:space="preserve">
<g>
	
		<polygon fill="none" stroke="#E0E0E0" stroke-width="3" stroke-linecap="round" stroke-linejoin="round" stroke-miterlimit="10" points="
		166.781,289.191 143.781,279.191 143.781,295.191 166.781,305.191 	"/>
	
		<polygon fill="none" stroke="#E0E0E0" stroke-width="3" stroke-linecap="round" stroke-linejoin="round" stroke-miterlimit="10" points="
		189.779,279.191 166.781,289.191 166.781,305.191 189.779,295.191 	"/>
	
		<ellipse fill="none" stroke="#E0E0E0" stroke-width="3" stroke-linecap="round" stroke-linejoin="round" stroke-miterlimit="10" cx="166.781" cy="280.191" rx="6" ry="3"/>
	
		<ellipse fill="none" stroke="#E0E0E0" stroke-width="3" stroke-linecap="round" stroke-linejoin="round" stroke-miterlimit="10" cx="166.781" cy="269.191" rx="6" ry="3"/>
	
		<ellipse fill="none" stroke="#E0E0E0" stroke-width="3" stroke-linecap="round" stroke-linejoin="round" stroke-miterlimit="10" cx="180.779" cy="275.191" rx="6" ry="3"/>
	
		<ellipse fill="none" stroke="#E0E0E0" stroke-width="3" stroke-linecap="round" stroke-linejoin="round" stroke-miterlimit="10" cx="153.781" cy="275.191" rx="6" ry="3"/>
	
		<line fill="none" stroke="#E0E0E0" stroke-width="3" stroke-linecap="round" stroke-linejoin="round" stroke-miterlimit="10" x1="148.93" y1="276.953" x2="143.781" y2="279.191"/>
	
		<line fill="none" stroke="#E0E0E0" stroke-width="3" stroke-linecap="round" stroke-linejoin="round" stroke-miterlimit="10" x1="162.256" y1="271.16" x2="157.945" y2="273.033"/>
	
		<line fill="none" stroke="#E0E0E0" stroke-width="3" stroke-linecap="round" stroke-linejoin="round" stroke-miterlimit="10" x1="176.169" y1="273.272" x2="171.305" y2="271.158"/>
	
		<line fill="none" stroke="#E0E0E0" stroke-width="3" stroke-linecap="round" stroke-linejoin="round" stroke-miterlimit="10" x1="189.779" y1="279.191" x2="185.182" y2="277.192"/>
</g>
<g>
	<polygon fill="none" stroke="#E0E0E0" stroke-width="3" stroke-linejoin="round" stroke-miterlimit="10" points="182.779,213.349 
		162.781,241.349 166.781,223.349 150.781,223.349 170.779,195.349 166.781,213.349 	"/>
</g>
<g>
	<path fill="none" stroke="#E0E0E0" stroke-width="3" stroke-linecap="round" stroke-linejoin="round" stroke-miterlimit="10" d="
		M169.779,93.665h5.007c6.071,0,10.993-5.302,10.993-11.378V59.665"/>
	
		<line fill="none" stroke="#E0E0E0" stroke-width="3" stroke-linecap="round" stroke-linejoin="round" stroke-miterlimit="10" x1="181.779" y1="76.665" x2="181.779" y2="80.665"/>
	
		<line fill="none" stroke="#E0E0E0" stroke-width="3" stroke-linecap="round" stroke-linejoin="round" stroke-miterlimit="10" x1="147.781" y1="76.665" x2="147.781" y2="80.665"/>
	
		<circle fill="none" stroke="#E0E0E0" stroke-width="3" stroke-linecap="round" stroke-miterlimit="10" cx="164.786" cy="93.287" r="5"/>
	
		<line fill="none" stroke="#E0E0E0" stroke-width="3" stroke-linecap="round" stroke-linejoin="round" stroke-miterlimit="10" x1="185.779" y1="53.665" x2="185.779" y2="55.665"/>
	<path fill="none" stroke="#E0E0E0" stroke-width="3" stroke-linecap="round" stroke-linejoin="round" stroke-miterlimit="10" d="
		M180.779,80.287c0,2.761-2.233,5.378-4.993,5.378h-4c-3.867,0-7.005-3.511-7.005-7.378v-8.622h7.005
		c4.969,0,8.993,3.651,8.993,8.622V80.287z"/>
	<path fill="none" stroke="#E0E0E0" stroke-width="3" stroke-linecap="round" stroke-linejoin="round" stroke-miterlimit="10" d="
		M148.781,80.287c0,2.761,2.242,5.378,5.005,5.378h4c3.864,0,6.995-3.511,6.995-7.378v-8.622h-6.995
		c-4.974,0-9.005,3.651-9.005,8.622V80.287z"/>
	
		<line fill="none" stroke="#E0E0E0" stroke-width="3" stroke-linecap="round" stroke-miterlimit="10" x1="159.781" y1="93.665" x2="155.781" y2="93.665"/>
</g>
<g>
	<polygon fill="none" stroke="#E0E0E0" stroke-width="3" stroke-linejoin="round" stroke-miterlimit="10" points="189.779,478.717 
		143.781,497.717 161.781,504.717 	"/>
	<polygon fill="none" stroke="#E0E0E0" stroke-width="3" stroke-linejoin="round" stroke-miterlimit="10" points="189.779,478.717 
		181.779,515.717 161.781,504.717 	"/>
	<polyline fill="none" stroke="#E0E0E0" stroke-width="3" stroke-linejoin="round" stroke-miterlimit="10" points="161.781,504.717 
		161.781,520.717 168.779,508.717 	"/>
</g>
<g>
	<path fill="none" stroke="#E0E0E0" stroke-width="3" stroke-linecap="round" stroke-linejoin="round" stroke-miterlimit="10" d="
		M158.781,407.875v38c0,4.418,3.582,8,8,8c4.417,0,7.998-3.582,7.998-8v-38H158.781z"/>
	
		<line fill="none" stroke="#E0E0E0" stroke-width="3" stroke-linecap="round" stroke-linejoin="round" stroke-miterlimit="10" x1="154.781" y1="407.875" x2="178.779" y2="407.875"/>
	
		<line fill="none" stroke="#E0E0E0" stroke-width="3" stroke-linecap="round" stroke-linejoin="round" stroke-miterlimit="10" x1="158.781" y1="417.875" x2="164.781" y2="417.875"/>
	
		<line fill="none" stroke="#E0E0E0" stroke-width="3" stroke-linecap="round" stroke-linejoin="round" stroke-miterlimit="10" x1="158.781" y1="423.875" x2="162.781" y2="423.875"/>
	
		<line fill="none" stroke="#E0E0E0" stroke-width="3" stroke-linecap="round" stroke-linejoin="round" stroke-miterlimit="10" x1="158.781" y1="429.875" x2="164.781" y2="429.875"/>
	
		<line fill="none" stroke="#E0E0E0" stroke-width="3" stroke-linecap="round" stroke-linejoin="round" stroke-miterlimit="10" x1="158.781" y1="435.875" x2="162.781" y2="435.875"/>
	<path fill="none" stroke="#E0E0E0" stroke-width="3" stroke-linecap="round" stroke-linejoin="round" stroke-miterlimit="10" d="
		M170.779,445.875c0,2.209-1.788,4-3.998,4"/>
</g>
<g>
	
		<polygon fill="none" stroke="#E0E0E0" stroke-width="3" stroke-linecap="round" stroke-linejoin="round" stroke-miterlimit="10" points="
		167.781,783.095 144.781,773.095 144.781,789.095 167.781,799.095 	"/>
	
		<polygon fill="none" stroke="#E0E0E0" stroke-width="3" stroke-linecap="round" stroke-linejoin="round" stroke-miterlimit="10" points="
		190.779,773.095 167.781,783.095 167.781,799.095 190.779,789.095 	"/>
	
		<ellipse fill="none" stroke="#E0E0E0" stroke-width="3" stroke-linecap="round" stroke-linejoin="round" stroke-miterlimit="10" cx="167.781" cy="774.095" rx="6" ry="3"/>
	
		<ellipse fill="none" stroke="#E0E0E0" stroke-width="3" stroke-linecap="round" stroke-linejoin="round" stroke-miterlimit="10" cx="167.781" cy="763.095" rx="6" ry="3"/>
	
		<ellipse fill="none" stroke="#E0E0E0" stroke-width="3" stroke-linecap="round" stroke-linejoin="round" stroke-miterlimit="10" cx="181.779" cy="769.095" rx="6" ry="3"/>
	
		<ellipse fill="none" stroke="#E0E0E0" stroke-width="3" stroke-linecap="round" stroke-linejoin="round" stroke-miterlimit="10" cx="154.781" cy="769.095" rx="6" ry="3"/>
	
		<line fill="none" stroke="#E0E0E0" stroke-width="3" stroke-linecap="round" stroke-linejoin="round" stroke-miterlimit="10" x1="149.93" y1="770.856" x2="144.781" y2="773.095"/>
	
		<line fill="none" stroke="#E0E0E0" stroke-width="3" stroke-linecap="round" stroke-linejoin="round" stroke-miterlimit="10" x1="163.256" y1="765.062" x2="158.945" y2="766.938"/>
	
		<line fill="none" stroke="#E0E0E0" stroke-width="3" stroke-linecap="round" stroke-linejoin="round" stroke-miterlimit="10" x1="177.169" y1="767.176" x2="172.305" y2="765.062"/>
	
		<line fill="none" stroke="#E0E0E0" stroke-width="3" stroke-linecap="round" stroke-linejoin="round" stroke-miterlimit="10" x1="190.779" y1="773.095" x2="186.182" y2="771.096"/>
</g>
<g>
	<polygon fill="none" stroke="#E0E0E0" stroke-width="3" stroke-linejoin="round" stroke-miterlimit="10" points="183.779,707.252 
		163.781,735.252 167.781,717.252 151.781,717.252 171.779,689.252 167.781,707.252 	"/>
</g>
<g>
	<path fill="none" stroke="#E0E0E0" stroke-width="3" stroke-linecap="round" stroke-linejoin="round" stroke-miterlimit="10" d="
		M170.779,587.568h5.007c6.071,0,10.993-5.303,10.993-11.378v-22.622"/>
	
		<line fill="none" stroke="#E0E0E0" stroke-width="3" stroke-linecap="round" stroke-linejoin="round" stroke-miterlimit="10" x1="182.779" y1="570.568" x2="182.779" y2="574.568"/>
	
		<line fill="none" stroke="#E0E0E0" stroke-width="3" stroke-linecap="round" stroke-linejoin="round" stroke-miterlimit="10" x1="148.781" y1="570.568" x2="148.781" y2="574.568"/>
	
		<circle fill="none" stroke="#E0E0E0" stroke-width="3" stroke-linecap="round" stroke-miterlimit="10" cx="165.786" cy="587.19" r="5"/>
	
		<line fill="none" stroke="#E0E0E0" stroke-width="3" stroke-linecap="round" stroke-linejoin="round" stroke-miterlimit="10" x1="186.779" y1="547.568" x2="186.779" y2="549.568"/>
	<path fill="none" stroke="#E0E0E0" stroke-width="3" stroke-linecap="round" stroke-linejoin="round" stroke-miterlimit="10" d="
		M181.779,574.19c0,2.761-2.233,5.378-4.993,5.378h-4c-3.867,0-7.005-3.512-7.005-7.378v-8.622h7.005
		c4.969,0,8.993,3.65,8.993,8.622V574.19z"/>
	<path fill="none" stroke="#E0E0E0" stroke-width="3" stroke-linecap="round" stroke-linejoin="round" stroke-miterlimit="10" d="
		M149.781,574.19c0,2.761,2.242,5.378,5.005,5.378h4c3.864,0,6.995-3.512,6.995-7.378v-8.622h-6.995
		c-4.974,0-9.005,3.65-9.005,8.622V574.19z"/>
	
		<line fill="none" stroke="#E0E0E0" stroke-width="3" stroke-linecap="round" stroke-miterlimit="10" x1="160.781" y1="587.568" x2="156.781" y2="587.568"/>
</g>
<g>
	<polygon fill="none" stroke="#E0E0E0" stroke-width="3" stroke-linejoin="round" stroke-miterlimit="10" points="190.779,972.621 
		144.781,991.621 162.781,998.621 	"/>
	<polygon fill="none" stroke="#E0E0E0" stroke-width="3" stroke-linejoin="round" stroke-miterlimit="10" points="190.779,972.621 
		182.779,1009.621 162.781,998.621 	"/>
	<polyline fill="none" stroke="#E0E0E0" stroke-width="3" stroke-linejoin="round" stroke-miterlimit="10" points="162.781,998.621 
		162.781,1014.621 169.779,1002.621 	"/>
</g>
<g>
	<path fill="none" stroke="#E0E0E0" stroke-width="3" stroke-linecap="round" stroke-linejoin="round" stroke-miterlimit="10" d="
		M159.781,901.779v38c0,4.418,3.582,8,8,8c4.417,0,7.998-3.582,7.998-8v-38H159.781z"/>
	
		<line fill="none" stroke="#E0E0E0" stroke-width="3" stroke-linecap="round" stroke-linejoin="round" stroke-miterlimit="10" x1="155.781" y1="901.779" x2="179.779" y2="901.779"/>
	
		<line fill="none" stroke="#E0E0E0" stroke-width="3" stroke-linecap="round" stroke-linejoin="round" stroke-miterlimit="10" x1="159.781" y1="911.779" x2="165.781" y2="911.779"/>
	
		<line fill="none" stroke="#E0E0E0" stroke-width="3" stroke-linecap="round" stroke-linejoin="round" stroke-miterlimit="10" x1="159.781" y1="917.779" x2="163.781" y2="917.779"/>
	
		<line fill="none" stroke="#E0E0E0" stroke-width="3" stroke-linecap="round" stroke-linejoin="round" stroke-miterlimit="10" x1="159.781" y1="923.779" x2="165.781" y2="923.779"/>
	
		<line fill="none" stroke="#E0E0E0" stroke-width="3" stroke-linecap="round" stroke-linejoin="round" stroke-miterlimit="10" x1="159.781" y1="929.779" x2="163.781" y2="929.779"/>
	<path fill="none" stroke="#E0E0E0" stroke-width="3" stroke-linecap="round" stroke-linejoin="round" stroke-miterlimit="10" d="
		M171.779,939.779c0,2.209-1.788,4-3.998,4"/>
</g>
<g>
	<polygon fill="none" stroke="#E0E0E0" stroke-width="3" stroke-linejoin="round" stroke-miterlimit="10" points="100.264,108.526 
		54.265,127.526 72.265,134.526 	"/>
	<polygon fill="none" stroke="#E0E0E0" stroke-width="3" stroke-linejoin="round" stroke-miterlimit="10" points="100.264,108.526 
		92.264,145.526 72.265,134.526 	"/>
	<polyline fill="none" stroke="#E0E0E0" stroke-width="3" stroke-linejoin="round" stroke-miterlimit="10" points="72.265,134.526 
		72.265,150.526 79.264,138.526 	"/>
</g>
<g>
	<path fill="none" stroke="#E0E0E0" stroke-width="3" stroke-linecap="round" stroke-linejoin="round" stroke-miterlimit="10" d="
		M69.265,37.684v38c0,4.418,3.582,8,8,8c4.417,0,7.999-3.582,7.999-8v-38H69.265z"/>
	
		<line fill="none" stroke="#E0E0E0" stroke-width="3" stroke-linecap="round" stroke-linejoin="round" stroke-miterlimit="10" x1="65.265" y1="37.684" x2="89.264" y2="37.684"/>
	
		<line fill="none" stroke="#E0E0E0" stroke-width="3" stroke-linecap="round" stroke-linejoin="round" stroke-miterlimit="10" x1="69.265" y1="47.684" x2="75.265" y2="47.684"/>
	
		<line fill="none" stroke="#E0E0E0" stroke-width="3" stroke-linecap="round" stroke-linejoin="round" stroke-miterlimit="10" x1="69.265" y1="53.684" x2="73.265" y2="53.684"/>
	
		<line fill="none" stroke="#E0E0E0" stroke-width="3" stroke-linecap="round" stroke-linejoin="round" stroke-miterlimit="10" x1="69.265" y1="59.684" x2="75.265" y2="59.684"/>
	
		<line fill="none" stroke="#E0E0E0" stroke-width="3" stroke-linecap="round" stroke-linejoin="round" stroke-miterlimit="10" x1="69.265" y1="65.684" x2="73.265" y2="65.684"/>
	<path fill="none" stroke="#E0E0E0" stroke-width="3" stroke-linecap="round" stroke-linejoin="round" stroke-miterlimit="10" d="
		M81.264,75.684c0,2.209-1.789,4-3.999,4"/>
</g>
<g>
	
		<polygon fill="none" stroke="#E0E0E0" stroke-width="3" stroke-linecap="round" stroke-linejoin="round" stroke-miterlimit="10" points="
		78.265,412.903 55.265,402.903 55.265,418.903 78.265,428.903 	"/>
	
		<polygon fill="none" stroke="#E0E0E0" stroke-width="3" stroke-linecap="round" stroke-linejoin="round" stroke-miterlimit="10" points="
		101.264,402.903 78.265,412.903 78.265,428.903 101.264,418.903 	"/>
	
		<ellipse fill="none" stroke="#E0E0E0" stroke-width="3" stroke-linecap="round" stroke-linejoin="round" stroke-miterlimit="10" cx="78.264" cy="403.903" rx="6" ry="3"/>
	
		<ellipse fill="none" stroke="#E0E0E0" stroke-width="3" stroke-linecap="round" stroke-linejoin="round" stroke-miterlimit="10" cx="78.264" cy="392.903" rx="6" ry="3"/>
	
		<ellipse fill="none" stroke="#E0E0E0" stroke-width="3" stroke-linecap="round" stroke-linejoin="round" stroke-miterlimit="10" cx="92.264" cy="398.903" rx="6" ry="3"/>
	
		<ellipse fill="none" stroke="#E0E0E0" stroke-width="3" stroke-linecap="round" stroke-linejoin="round" stroke-miterlimit="10" cx="65.265" cy="398.903" rx="6" ry="3"/>
	
		<line fill="none" stroke="#E0E0E0" stroke-width="3" stroke-linecap="round" stroke-linejoin="round" stroke-miterlimit="10" x1="60.412" y1="400.665" x2="55.265" y2="402.903"/>
	
		<line fill="none" stroke="#E0E0E0" stroke-width="3" stroke-linecap="round" stroke-linejoin="round" stroke-miterlimit="10" x1="73.739" y1="394.872" x2="69.429" y2="396.745"/>
	
		<line fill="none" stroke="#E0E0E0" stroke-width="3" stroke-linecap="round" stroke-linejoin="round" stroke-miterlimit="10" x1="87.652" y1="396.984" x2="82.787" y2="394.87"/>
	
		<line fill="none" stroke="#E0E0E0" stroke-width="3" stroke-linecap="round" stroke-linejoin="round" stroke-miterlimit="10" x1="101.264" y1="402.903" x2="96.664" y2="400.904"/>
</g>
<g>
	<polygon fill="none" stroke="#E0E0E0" stroke-width="3" stroke-linejoin="round" stroke-miterlimit="10" points="94.264,337.061 
		74.265,365.061 78.265,347.061 62.265,347.061 82.264,319.061 78.265,337.061 	"/>
</g>
<g>
	<path fill="none" stroke="#E0E0E0" stroke-width="3" stroke-linecap="round" stroke-linejoin="round" stroke-miterlimit="10" d="
		M81.264,217.377h5.006c6.072,0,10.994-5.302,10.994-11.378v-22.622"/>
	
		<line fill="none" stroke="#E0E0E0" stroke-width="3" stroke-linecap="round" stroke-linejoin="round" stroke-miterlimit="10" x1="93.264" y1="200.377" x2="93.264" y2="204.377"/>
	
		<line fill="none" stroke="#E0E0E0" stroke-width="3" stroke-linecap="round" stroke-linejoin="round" stroke-miterlimit="10" x1="59.265" y1="200.377" x2="59.265" y2="204.377"/>
	
		<circle fill="none" stroke="#E0E0E0" stroke-width="3" stroke-linecap="round" stroke-miterlimit="10" cx="76.27" cy="216.999" r="5"/>
	
		<line fill="none" stroke="#E0E0E0" stroke-width="3" stroke-linecap="round" stroke-linejoin="round" stroke-miterlimit="10" x1="97.264" y1="177.377" x2="97.264" y2="179.377"/>
	<path fill="none" stroke="#E0E0E0" stroke-width="3" stroke-linecap="round" stroke-linejoin="round" stroke-miterlimit="10" d="
		M92.264,203.999c0,2.761-2.234,5.378-4.994,5.378h-4c-3.867,0-7.005-3.511-7.005-7.378v-8.622h7.005
		c4.969,0,8.994,3.651,8.994,8.622V203.999z"/>
	<path fill="none" stroke="#E0E0E0" stroke-width="3" stroke-linecap="round" stroke-linejoin="round" stroke-miterlimit="10" d="
		M60.265,203.999c0,2.761,2.242,5.378,5.005,5.378h4c3.864,0,6.995-3.511,6.995-7.378v-8.622H69.27
		c-4.973,0-9.005,3.651-9.005,8.622V203.999z"/>
	
		<line fill="none" stroke="#E0E0E0" stroke-width="3" stroke-linecap="round" stroke-miterlimit="10" x1="71.265" y1="217.377" x2="67.265" y2="217.377"/>
</g>
<g>
	<polygon fill="none" stroke="#E0E0E0" stroke-width="3" stroke-linejoin="round" stroke-miterlimit="10" points="101.764,603.486 
		55.765,622.486 73.765,629.486 	"/>
	<polygon fill="none" stroke="#E0E0E0" stroke-width="3" stroke-linejoin="round" stroke-miterlimit="10" points="101.764,603.486 
		93.764,640.486 73.765,629.486 	"/>
	<polyline fill="none" stroke="#E0E0E0" stroke-width="3" stroke-linejoin="round" stroke-miterlimit="10" points="73.765,629.486 
		73.765,645.486 80.764,633.486 	"/>
</g>
<g>
	<path fill="none" stroke="#E0E0E0" stroke-width="3" stroke-linecap="round" stroke-linejoin="round" stroke-miterlimit="10" d="
		M70.765,532.645v38c0,4.419,3.582,8,8,8c4.417,0,7.999-3.581,7.999-8v-38H70.765z"/>
	
		<line fill="none" stroke="#E0E0E0" stroke-width="3" stroke-linecap="round" stroke-linejoin="round" stroke-miterlimit="10" x1="66.765" y1="532.645" x2="90.764" y2="532.645"/>
	
		<line fill="none" stroke="#E0E0E0" stroke-width="3" stroke-linecap="round" stroke-linejoin="round" stroke-miterlimit="10" x1="70.765" y1="542.645" x2="76.765" y2="542.645"/>
	
		<line fill="none" stroke="#E0E0E0" stroke-width="3" stroke-linecap="round" stroke-linejoin="round" stroke-miterlimit="10" x1="70.765" y1="548.645" x2="74.765" y2="548.645"/>
	
		<line fill="none" stroke="#E0E0E0" stroke-width="3" stroke-linecap="round" stroke-linejoin="round" stroke-miterlimit="10" x1="70.765" y1="554.645" x2="76.765" y2="554.645"/>
	
		<line fill="none" stroke="#E0E0E0" stroke-width="3" stroke-linecap="round" stroke-linejoin="round" stroke-miterlimit="10" x1="70.765" y1="560.645" x2="74.765" y2="560.645"/>
	<path fill="none" stroke="#E0E0E0" stroke-width="3" stroke-linecap="round" stroke-linejoin="round" stroke-miterlimit="10" d="
		M82.764,570.645c0,2.209-1.789,4-3.999,4"/>
</g>
<g>
	
		<polygon fill="none" stroke="#E0E0E0" stroke-width="3" stroke-linecap="round" stroke-linejoin="round" stroke-miterlimit="10" points="
		79.765,907.864 56.765,897.864 56.765,913.864 79.765,923.864 	"/>
	
		<polygon fill="none" stroke="#E0E0E0" stroke-width="3" stroke-linecap="round" stroke-linejoin="round" stroke-miterlimit="10" points="
		102.764,897.864 79.765,907.864 79.765,923.864 102.764,913.864 	"/>
	
		<ellipse fill="none" stroke="#E0E0E0" stroke-width="3" stroke-linecap="round" stroke-linejoin="round" stroke-miterlimit="10" cx="79.764" cy="898.864" rx="6" ry="3"/>
	
		<ellipse fill="none" stroke="#E0E0E0" stroke-width="3" stroke-linecap="round" stroke-linejoin="round" stroke-miterlimit="10" cx="79.764" cy="887.864" rx="6" ry="3"/>
	
		<ellipse fill="none" stroke="#E0E0E0" stroke-width="3" stroke-linecap="round" stroke-linejoin="round" stroke-miterlimit="10" cx="93.764" cy="893.864" rx="6" ry="3"/>
	
		<ellipse fill="none" stroke="#E0E0E0" stroke-width="3" stroke-linecap="round" stroke-linejoin="round" stroke-miterlimit="10" cx="66.765" cy="893.864" rx="6" ry="3"/>
	
		<line fill="none" stroke="#E0E0E0" stroke-width="3" stroke-linecap="round" stroke-linejoin="round" stroke-miterlimit="10" x1="61.912" y1="895.626" x2="56.765" y2="897.864"/>
	
		<line fill="none" stroke="#E0E0E0" stroke-width="3" stroke-linecap="round" stroke-linejoin="round" stroke-miterlimit="10" x1="75.239" y1="889.833" x2="70.929" y2="891.706"/>
	
		<line fill="none" stroke="#E0E0E0" stroke-width="3" stroke-linecap="round" stroke-linejoin="round" stroke-miterlimit="10" x1="89.152" y1="891.945" x2="84.287" y2="889.831"/>
	
		<line fill="none" stroke="#E0E0E0" stroke-width="3" stroke-linecap="round" stroke-linejoin="round" stroke-miterlimit="10" x1="102.764" y1="897.864" x2="98.164" y2="895.865"/>
</g>
<g>
	<polygon fill="none" stroke="#E0E0E0" stroke-width="3" stroke-linejoin="round" stroke-miterlimit="10" points="95.764,832.021 
		75.765,860.021 79.765,842.021 63.765,842.021 83.764,814.021 79.765,832.021 	"/>
</g>
<g>
	<path fill="none" stroke="#E0E0E0" stroke-width="3" stroke-linecap="round" stroke-linejoin="round" stroke-miterlimit="10" d="
		M82.764,712.338h5.006c6.072,0,10.994-5.302,10.994-11.378v-22.622"/>
	
		<line fill="none" stroke="#E0E0E0" stroke-width="3" stroke-linecap="round" stroke-linejoin="round" stroke-miterlimit="10" x1="94.764" y1="695.338" x2="94.764" y2="699.338"/>
	
		<line fill="none" stroke="#E0E0E0" stroke-width="3" stroke-linecap="round" stroke-linejoin="round" stroke-miterlimit="10" x1="60.765" y1="695.338" x2="60.765" y2="699.338"/>
	
		<circle fill="none" stroke="#E0E0E0" stroke-width="3" stroke-linecap="round" stroke-miterlimit="10" cx="77.77" cy="711.96" r="5"/>
	
		<line fill="none" stroke="#E0E0E0" stroke-width="3" stroke-linecap="round" stroke-linejoin="round" stroke-miterlimit="10" x1="98.764" y1="672.338" x2="98.764" y2="674.338"/>
	<path fill="none" stroke="#E0E0E0" stroke-width="3" stroke-linecap="round" stroke-linejoin="round" stroke-miterlimit="10" d="
		M93.764,698.96c0,2.761-2.234,5.378-4.994,5.378h-4c-3.867,0-7.005-3.511-7.005-7.378v-8.622h7.005
		c4.969,0,8.994,3.651,8.994,8.622V698.96z"/>
	<path fill="none" stroke="#E0E0E0" stroke-width="3" stroke-linecap="round" stroke-linejoin="round" stroke-miterlimit="10" d="
		M61.765,698.96c0,2.761,2.242,5.378,5.005,5.378h4c3.864,0,6.995-3.511,6.995-7.378v-8.622H70.77c-4.973,0-9.005,3.651-9.005,8.622
		V698.96z"/>
	
		<line fill="none" stroke="#E0E0E0" stroke-width="3" stroke-linecap="round" stroke-miterlimit="10" x1="72.765" y1="712.338" x2="68.765" y2="712.338"/>
</g>
<g>
	
		<polygon fill="none" stroke="#E0E0E0" stroke-width="3" stroke-linecap="round" stroke-linejoin="round" stroke-miterlimit="10" points="
		261.396,93.842 238.396,83.842 238.396,99.842 261.396,109.842 	"/>
	
		<polygon fill="none" stroke="#E0E0E0" stroke-width="3" stroke-linecap="round" stroke-linejoin="round" stroke-miterlimit="10" points="
		284.396,83.842 261.396,93.842 261.396,109.842 284.396,99.842 	"/>
	
		<ellipse fill="none" stroke="#E0E0E0" stroke-width="3" stroke-linecap="round" stroke-linejoin="round" stroke-miterlimit="10" cx="261.396" cy="84.842" rx="6" ry="3"/>
	
		<ellipse fill="none" stroke="#E0E0E0" stroke-width="3" stroke-linecap="round" stroke-linejoin="round" stroke-miterlimit="10" cx="261.396" cy="73.842" rx="6" ry="3"/>
	
		<ellipse fill="none" stroke="#E0E0E0" stroke-width="3" stroke-linecap="round" stroke-linejoin="round" stroke-miterlimit="10" cx="275.396" cy="79.842" rx="6" ry="3"/>
	
		<ellipse fill="none" stroke="#E0E0E0" stroke-width="3" stroke-linecap="round" stroke-linejoin="round" stroke-miterlimit="10" cx="248.396" cy="79.842" rx="6" ry="3"/>
	
		<line fill="none" stroke="#E0E0E0" stroke-width="3" stroke-linecap="round" stroke-linejoin="round" stroke-miterlimit="10" x1="243.545" y1="81.604" x2="238.396" y2="83.842"/>
	
		<line fill="none" stroke="#E0E0E0" stroke-width="3" stroke-linecap="round" stroke-linejoin="round" stroke-miterlimit="10" x1="256.872" y1="75.811" x2="252.562" y2="77.684"/>
	
		<line fill="none" stroke="#E0E0E0" stroke-width="3" stroke-linecap="round" stroke-linejoin="round" stroke-miterlimit="10" x1="270.785" y1="77.923" x2="265.92" y2="75.809"/>
	
		<line fill="none" stroke="#E0E0E0" stroke-width="3" stroke-linecap="round" stroke-linejoin="round" stroke-miterlimit="10" x1="284.396" y1="83.842" x2="279.797" y2="81.843"/>
</g>
<g>
	<polygon fill="none" stroke="#E0E0E0" stroke-width="3" stroke-linejoin="round" stroke-miterlimit="10" points="284.396,283.369 
		238.396,302.369 256.396,309.369 	"/>
	<polygon fill="none" stroke="#E0E0E0" stroke-width="3" stroke-linejoin="round" stroke-miterlimit="10" points="284.396,283.369 
		276.396,320.369 256.396,309.369 	"/>
	<polyline fill="none" stroke="#E0E0E0" stroke-width="3" stroke-linejoin="round" stroke-miterlimit="10" points="256.396,309.369 
		256.396,325.369 263.396,313.369 	"/>
</g>
<g>
	<path fill="none" stroke="#E0E0E0" stroke-width="3" stroke-linecap="round" stroke-linejoin="round" stroke-miterlimit="10" d="
		M253.396,212.527v38c0,4.418,3.582,8,8,8s8-3.582,8-8v-38H253.396z"/>
	
		<line fill="none" stroke="#E0E0E0" stroke-width="3" stroke-linecap="round" stroke-linejoin="round" stroke-miterlimit="10" x1="249.396" y1="212.527" x2="273.396" y2="212.527"/>
	
		<line fill="none" stroke="#E0E0E0" stroke-width="3" stroke-linecap="round" stroke-linejoin="round" stroke-miterlimit="10" x1="253.396" y1="222.527" x2="259.396" y2="222.527"/>
	
		<line fill="none" stroke="#E0E0E0" stroke-width="3" stroke-linecap="round" stroke-linejoin="round" stroke-miterlimit="10" x1="253.396" y1="228.527" x2="257.396" y2="228.527"/>
	
		<line fill="none" stroke="#E0E0E0" stroke-width="3" stroke-linecap="round" stroke-linejoin="round" stroke-miterlimit="10" x1="253.396" y1="234.527" x2="259.396" y2="234.527"/>
	
		<line fill="none" stroke="#E0E0E0" stroke-width="3" stroke-linecap="round" stroke-linejoin="round" stroke-miterlimit="10" x1="253.396" y1="240.527" x2="257.396" y2="240.527"/>
	<path fill="none" stroke="#E0E0E0" stroke-width="3" stroke-linecap="round" stroke-linejoin="round" stroke-miterlimit="10" d="
		M265.396,250.527c0,2.209-1.789,4-4,4"/>
</g>
<g>
	<path fill="none" stroke="#E0E0E0" stroke-width="3" stroke-linecap="round" stroke-linejoin="round" stroke-miterlimit="10" d="
		M265.396,392.22h5.006c6.072,0,10.994-5.302,10.994-11.378V358.22"/>
	
		<line fill="none" stroke="#E0E0E0" stroke-width="3" stroke-linecap="round" stroke-linejoin="round" stroke-miterlimit="10" x1="277.396" y1="375.22" x2="277.396" y2="379.22"/>
	
		<line fill="none" stroke="#E0E0E0" stroke-width="3" stroke-linecap="round" stroke-linejoin="round" stroke-miterlimit="10" x1="243.396" y1="375.22" x2="243.396" y2="379.22"/>
	
		<circle fill="none" stroke="#E0E0E0" stroke-width="3" stroke-linecap="round" stroke-miterlimit="10" cx="260.402" cy="391.842" r="5"/>
	
		<line fill="none" stroke="#E0E0E0" stroke-width="3" stroke-linecap="round" stroke-linejoin="round" stroke-miterlimit="10" x1="281.396" y1="352.22" x2="281.396" y2="354.22"/>
	<path fill="none" stroke="#E0E0E0" stroke-width="3" stroke-linecap="round" stroke-linejoin="round" stroke-miterlimit="10" d="
		M276.396,378.842c0,2.761-2.234,5.378-4.994,5.378h-4c-3.867,0-7.006-3.511-7.006-7.378v-8.622h7.006
		c4.969,0,8.994,3.651,8.994,8.622V378.842z"/>
	<path fill="none" stroke="#E0E0E0" stroke-width="3" stroke-linecap="round" stroke-linejoin="round" stroke-miterlimit="10" d="
		M244.396,378.842c0,2.761,2.242,5.378,5.006,5.378h4c3.863,0,6.994-3.511,6.994-7.378v-8.622h-6.994
		c-4.973,0-9.006,3.651-9.006,8.622V378.842z"/>
	
		<line fill="none" stroke="#E0E0E0" stroke-width="3" stroke-linecap="round" stroke-miterlimit="10" x1="255.396" y1="392.22" x2="251.396" y2="392.22"/>
</g>
<g>
	
		<polygon fill="none" stroke="#E0E0E0" stroke-width="3" stroke-linecap="round" stroke-linejoin="round" stroke-miterlimit="10" points="
		259.896,583.503 236.896,573.503 236.896,589.503 259.896,599.503 	"/>
	
		<polygon fill="none" stroke="#E0E0E0" stroke-width="3" stroke-linecap="round" stroke-linejoin="round" stroke-miterlimit="10" points="
		282.896,573.503 259.896,583.503 259.896,599.503 282.896,589.503 	"/>
	
		<ellipse fill="none" stroke="#E0E0E0" stroke-width="3" stroke-linecap="round" stroke-linejoin="round" stroke-miterlimit="10" cx="259.896" cy="574.503" rx="6" ry="3"/>
	
		<ellipse fill="none" stroke="#E0E0E0" stroke-width="3" stroke-linecap="round" stroke-linejoin="round" stroke-miterlimit="10" cx="259.896" cy="563.503" rx="6" ry="3"/>
	
		<ellipse fill="none" stroke="#E0E0E0" stroke-width="3" stroke-linecap="round" stroke-linejoin="round" stroke-miterlimit="10" cx="273.896" cy="569.503" rx="6" ry="3"/>
	
		<ellipse fill="none" stroke="#E0E0E0" stroke-width="3" stroke-linecap="round" stroke-linejoin="round" stroke-miterlimit="10" cx="246.896" cy="569.503" rx="6" ry="3"/>
	
		<line fill="none" stroke="#E0E0E0" stroke-width="3" stroke-linecap="round" stroke-linejoin="round" stroke-miterlimit="10" x1="242.045" y1="571.265" x2="236.896" y2="573.503"/>
	
		<line fill="none" stroke="#E0E0E0" stroke-width="3" stroke-linecap="round" stroke-linejoin="round" stroke-miterlimit="10" x1="255.372" y1="565.472" x2="251.062" y2="567.345"/>
	
		<line fill="none" stroke="#E0E0E0" stroke-width="3" stroke-linecap="round" stroke-linejoin="round" stroke-miterlimit="10" x1="269.285" y1="567.583" x2="264.42" y2="565.47"/>
	
		<line fill="none" stroke="#E0E0E0" stroke-width="3" stroke-linecap="round" stroke-linejoin="round" stroke-miterlimit="10" x1="282.896" y1="573.503" x2="278.297" y2="571.503"/>
</g>
<g>
	<polygon fill="none" stroke="#E0E0E0" stroke-width="3" stroke-linejoin="round" stroke-miterlimit="10" points="282.896,773.028 
		236.896,792.028 254.896,799.028 	"/>
	<polygon fill="none" stroke="#E0E0E0" stroke-width="3" stroke-linejoin="round" stroke-miterlimit="10" points="282.896,773.028 
		274.896,810.028 254.896,799.028 	"/>
	<polyline fill="none" stroke="#E0E0E0" stroke-width="3" stroke-linejoin="round" stroke-miterlimit="10" points="254.896,799.028 
		254.896,815.028 261.896,803.028 	"/>
</g>
<g>
	<path fill="none" stroke="#E0E0E0" stroke-width="3" stroke-linecap="round" stroke-linejoin="round" stroke-miterlimit="10" d="
		M251.896,702.188v38c0,4.418,3.582,8,8,8s8-3.582,8-8v-38H251.896z"/>
	
		<line fill="none" stroke="#E0E0E0" stroke-width="3" stroke-linecap="round" stroke-linejoin="round" stroke-miterlimit="10" x1="247.896" y1="702.188" x2="271.896" y2="702.188"/>
	
		<line fill="none" stroke="#E0E0E0" stroke-width="3" stroke-linecap="round" stroke-linejoin="round" stroke-miterlimit="10" x1="251.896" y1="712.188" x2="257.896" y2="712.188"/>
	
		<line fill="none" stroke="#E0E0E0" stroke-width="3" stroke-linecap="round" stroke-linejoin="round" stroke-miterlimit="10" x1="251.896" y1="718.188" x2="255.896" y2="718.188"/>
	
		<line fill="none" stroke="#E0E0E0" stroke-width="3" stroke-linecap="round" stroke-linejoin="round" stroke-miterlimit="10" x1="251.896" y1="724.188" x2="257.896" y2="724.188"/>
	
		<line fill="none" stroke="#E0E0E0" stroke-width="3" stroke-linecap="round" stroke-linejoin="round" stroke-miterlimit="10" x1="251.896" y1="730.188" x2="255.896" y2="730.188"/>
	<path fill="none" stroke="#E0E0E0" stroke-width="3" stroke-linecap="round" stroke-linejoin="round" stroke-miterlimit="10" d="
		M263.896,740.188c0,2.209-1.789,4-4,4"/>
</g>
<g>
	<path fill="none" stroke="#E0E0E0" stroke-width="3" stroke-linecap="round" stroke-linejoin="round" stroke-miterlimit="10" d="
		M263.896,881.88h5.006c6.072,0,10.994-5.302,10.994-11.378V847.88"/>
	
		<line fill="none" stroke="#E0E0E0" stroke-width="3" stroke-linecap="round" stroke-linejoin="round" stroke-miterlimit="10" x1="275.896" y1="864.88" x2="275.896" y2="868.88"/>
	
		<line fill="none" stroke="#E0E0E0" stroke-width="3" stroke-linecap="round" stroke-linejoin="round" stroke-miterlimit="10" x1="241.896" y1="864.88" x2="241.896" y2="868.88"/>
	
		<circle fill="none" stroke="#E0E0E0" stroke-width="3" stroke-linecap="round" stroke-miterlimit="10" cx="258.902" cy="881.502" r="5"/>
	
		<line fill="none" stroke="#E0E0E0" stroke-width="3" stroke-linecap="round" stroke-linejoin="round" stroke-miterlimit="10" x1="279.896" y1="841.88" x2="279.896" y2="843.88"/>
	<path fill="none" stroke="#E0E0E0" stroke-width="3" stroke-linecap="round" stroke-linejoin="round" stroke-miterlimit="10" d="
		M274.896,868.502c0,2.761-2.234,5.378-4.994,5.378h-4c-3.867,0-7.006-3.511-7.006-7.378v-8.622h7.006
		c4.969,0,8.994,3.651,8.994,8.622V868.502z"/>
	<path fill="none" stroke="#E0E0E0" stroke-width="3" stroke-linecap="round" stroke-linejoin="round" stroke-miterlimit="10" d="
		M242.896,868.502c0,2.761,2.242,5.378,5.006,5.378h4c3.863,0,6.994-3.511,6.994-7.378v-8.622h-6.994
		c-4.973,0-9.006,3.651-9.006,8.622V868.502z"/>
	
		<line fill="none" stroke="#E0E0E0" stroke-width="3" stroke-linecap="round" stroke-miterlimit="10" x1="253.896" y1="881.88" x2="249.896" y2="881.88"/>
</g>
<g>
	<polygon fill="none" stroke="#E0E0E0" stroke-width="3" stroke-linejoin="round" stroke-miterlimit="10" points="273.896,1009.621 
		253.896,1037.621 257.896,1019.621 241.896,1019.621 261.896,991.621 257.896,1009.621 	"/>
</g>
<g>
	<g>
		
			<polyline fill="none" stroke="#DBE2E4" stroke-width="3" stroke-linecap="round" stroke-linejoin="round" stroke-miterlimit="10" points="
			104.259,488.012 97.438,480.411 92.051,489.086 		"/>
		<path fill="none" stroke="#DBE2E4" stroke-width="3" stroke-linecap="round" stroke-linejoin="round" stroke-miterlimit="10" d="
			M97.429,480.453c2.666,10.632-3.591,21.647-14.224,24.314"/>
	</g>
	<g>
		
			<polyline fill="none" stroke="#DBE2E4" stroke-width="3" stroke-linecap="round" stroke-linejoin="round" stroke-miterlimit="10" points="
			69.097,461.305 65.263,470.771 75.423,471.801 		"/>
		<path fill="none" stroke="#DBE2E4" stroke-width="3" stroke-linecap="round" stroke-linejoin="round" stroke-miterlimit="10" d="
			M65.347,470.703c8.379-7.065,20.984-6.224,28.05,2.157"/>
	</g>
	<g>
		
			<polyline fill="none" stroke="#DBE2E4" stroke-width="3" stroke-linecap="round" stroke-linejoin="round" stroke-miterlimit="10" points="
			61.694,506.186 71.803,504.722 67.568,495.429 		"/>
		<path fill="none" stroke="#DBE2E4" stroke-width="3" stroke-linecap="round" stroke-linejoin="round" stroke-miterlimit="10" d="
			M71.597,504.662c-10.328-3.674-15.852-14.961-12.178-25.288"/>
	</g>
</g>
<g>
	<g>
		
			<polyline fill="none" stroke="#DBE2E4" stroke-width="3" stroke-linecap="round" stroke-linejoin="round" stroke-miterlimit="10" points="
			107.276,979.973 100.456,972.372 95.068,981.047 		"/>
		<path fill="none" stroke="#DBE2E4" stroke-width="3" stroke-linecap="round" stroke-linejoin="round" stroke-miterlimit="10" d="
			M100.446,972.414c2.666,10.632-3.591,21.647-14.224,24.314"/>
	</g>
	<g>
		
			<polyline fill="none" stroke="#DBE2E4" stroke-width="3" stroke-linecap="round" stroke-linejoin="round" stroke-miterlimit="10" points="
			72.114,953.266 68.28,962.732 78.44,963.762 		"/>
		<path fill="none" stroke="#DBE2E4" stroke-width="3" stroke-linecap="round" stroke-linejoin="round" stroke-miterlimit="10" d="
			M68.364,962.664c8.379-7.065,20.985-6.224,28.05,2.157"/>
	</g>
	<g>
		
			<polyline fill="none" stroke="#DBE2E4" stroke-width="3" stroke-linecap="round" stroke-linejoin="round" stroke-miterlimit="10" points="
			64.712,998.146 74.82,996.683 70.586,987.39 		"/>
		<path fill="none" stroke="#DBE2E4" stroke-width="3" stroke-linecap="round" stroke-linejoin="round" stroke-miterlimit="10" d="
			M74.614,996.623c-10.328-3.674-15.851-14.961-12.178-25.288"/>
	</g>
</g>
<g>
	<g>
		
			<polyline fill="none" stroke="#DBE2E4" stroke-width="3" stroke-linecap="round" stroke-linejoin="round" stroke-miterlimit="10" points="
			194.768,855.202 187.947,847.602 182.56,856.276 		"/>
		<path fill="none" stroke="#DBE2E4" stroke-width="3" stroke-linecap="round" stroke-linejoin="round" stroke-miterlimit="10" d="
			M187.938,847.644c2.666,10.632-3.591,21.647-14.224,24.314"/>
	</g>
	<g>
		
			<polyline fill="none" stroke="#DBE2E4" stroke-width="3" stroke-linecap="round" stroke-linejoin="round" stroke-miterlimit="10" points="
			159.605,828.495 155.771,837.962 165.932,838.991 		"/>
		<path fill="none" stroke="#DBE2E4" stroke-width="3" stroke-linecap="round" stroke-linejoin="round" stroke-miterlimit="10" d="
			M155.855,837.894c8.379-7.065,20.984-6.224,28.05,2.157"/>
	</g>
	<g>
		
			<polyline fill="none" stroke="#DBE2E4" stroke-width="3" stroke-linecap="round" stroke-linejoin="round" stroke-miterlimit="10" points="
			152.203,873.376 162.312,871.912 158.077,862.619 		"/>
		<path fill="none" stroke="#DBE2E4" stroke-width="3" stroke-linecap="round" stroke-linejoin="round" stroke-miterlimit="10" d="
			M162.105,871.853c-10.328-3.674-15.852-14.961-12.178-25.288"/>
	</g>
</g>
<g>
	<g>
		
			<polyline fill="none" stroke="#DBE2E4" stroke-width="3" stroke-linecap="round" stroke-linejoin="round" stroke-miterlimit="10" points="
			194.293,362.486 187.473,354.886 182.085,363.561 		"/>
		<path fill="none" stroke="#DBE2E4" stroke-width="3" stroke-linecap="round" stroke-linejoin="round" stroke-miterlimit="10" d="
			M187.463,354.928c2.666,10.632-3.591,21.647-14.224,24.314"/>
	</g>
	<g>
		
			<polyline fill="none" stroke="#DBE2E4" stroke-width="3" stroke-linecap="round" stroke-linejoin="round" stroke-miterlimit="10" points="
			159.131,335.779 155.297,345.246 165.457,346.275 		"/>
		<path fill="none" stroke="#DBE2E4" stroke-width="3" stroke-linecap="round" stroke-linejoin="round" stroke-miterlimit="10" d="
			M155.381,345.178c8.379-7.065,20.984-6.224,28.05,2.157"/>
	</g>
	<g>
		
			<polyline fill="none" stroke="#DBE2E4" stroke-width="3" stroke-linecap="round" stroke-linejoin="round" stroke-miterlimit="10" points="
			151.729,380.66 161.837,379.196 157.603,369.903 		"/>
		<path fill="none" stroke="#DBE2E4" stroke-width="3" stroke-linecap="round" stroke-linejoin="round" stroke-miterlimit="10" d="
			M161.631,379.137c-10.328-3.674-15.852-14.961-12.178-25.288"/>
	</g>
</g>
<g>
	<g>
		
			<polyline fill="none" stroke="#DBE2E4" stroke-width="3" stroke-linecap="round" stroke-linejoin="round" stroke-miterlimit="10" points="
			286.892,166.773 280.071,159.173 274.684,167.848 		"/>
		<path fill="none" stroke="#DBE2E4" stroke-width="3" stroke-linecap="round" stroke-linejoin="round" stroke-miterlimit="10" d="
			M280.062,159.215c2.666,10.632-3.591,21.647-14.224,24.314"/>
	</g>
	<g>
		
			<polyline fill="none" stroke="#DBE2E4" stroke-width="3" stroke-linecap="round" stroke-linejoin="round" stroke-miterlimit="10" points="
			251.729,140.066 247.896,149.533 258.056,150.562 		"/>
		<path fill="none" stroke="#DBE2E4" stroke-width="3" stroke-linecap="round" stroke-linejoin="round" stroke-miterlimit="10" d="
			M247.979,149.465c8.379-7.065,20.984-6.224,28.05,2.157"/>
	</g>
	<g>
		
			<polyline fill="none" stroke="#DBE2E4" stroke-width="3" stroke-linecap="round" stroke-linejoin="round" stroke-miterlimit="10" points="
			244.327,184.947 254.436,183.483 250.201,174.19 		"/>
		<path fill="none" stroke="#DBE2E4" stroke-width="3" stroke-linecap="round" stroke-linejoin="round" stroke-miterlimit="10" d="
			M254.229,183.424c-10.328-3.674-15.852-14.961-12.178-25.288"/>
	</g>
</g>
<g>
	<g>
		
			<polyline fill="none" stroke="#DBE2E4" stroke-width="3" stroke-linecap="round" stroke-linejoin="round" stroke-miterlimit="10" points="
			282.886,656.677 276.065,649.076 270.678,657.751 		"/>
		<path fill="none" stroke="#DBE2E4" stroke-width="3" stroke-linecap="round" stroke-linejoin="round" stroke-miterlimit="10" d="
			M276.056,649.118c2.666,10.632-3.591,21.647-14.224,24.314"/>
	</g>
	<g>
		
			<polyline fill="none" stroke="#DBE2E4" stroke-width="3" stroke-linecap="round" stroke-linejoin="round" stroke-miterlimit="10" points="
			247.724,629.97 243.89,639.437 254.05,640.466 		"/>
		<path fill="none" stroke="#DBE2E4" stroke-width="3" stroke-linecap="round" stroke-linejoin="round" stroke-miterlimit="10" d="
			M243.974,639.368c8.379-7.065,20.984-6.224,28.05,2.157"/>
	</g>
	<g>
		
			<polyline fill="none" stroke="#DBE2E4" stroke-width="3" stroke-linecap="round" stroke-linejoin="round" stroke-miterlimit="10" points="
			240.321,674.851 250.43,673.387 246.195,664.094 		"/>
		<path fill="none" stroke="#DBE2E4" stroke-width="3" stroke-linecap="round" stroke-linejoin="round" stroke-miterlimit="10" d="
			M250.224,673.327c-10.328-3.674-15.852-14.961-12.178-25.288"/>
	</g>
</g>
<g>
	
		<rect x="143.779" y="128.507" fill="none" stroke="#DBE2E4" stroke-width="3" stroke-linecap="round" stroke-linejoin="round" stroke-miterlimit="10" width="20" height="20"/>
	
		<rect x="169.779" y="128.507" fill="none" stroke="#DBE2E4" stroke-width="3" stroke-linecap="round" stroke-linejoin="round" stroke-miterlimit="10" width="20" height="20"/>
	
		<rect x="143.779" y="154.507" fill="none" stroke="#DBE2E4" stroke-width="3" stroke-linecap="round" stroke-linejoin="round" stroke-miterlimit="10" width="20" height="20"/>
	
		<rect x="169.779" y="154.507" fill="none" stroke="#DBE2E4" stroke-width="3" stroke-linecap="round" stroke-linejoin="round" stroke-miterlimit="10" width="20" height="20"/>
</g>
<g>
	
		<rect x="55.765" y="250.272" fill="none" stroke="#DBE2E4" stroke-width="3" stroke-linecap="round" stroke-linejoin="round" stroke-miterlimit="10" width="20" height="20"/>
	
		<rect x="81.765" y="250.272" fill="none" stroke="#DBE2E4" stroke-width="3" stroke-linecap="round" stroke-linejoin="round" stroke-miterlimit="10" width="20" height="20"/>
	
		<rect x="55.765" y="276.272" fill="none" stroke="#DBE2E4" stroke-width="3" stroke-linecap="round" stroke-linejoin="round" stroke-miterlimit="10" width="20" height="20"/>
	
		<rect x="81.765" y="276.272" fill="none" stroke="#DBE2E4" stroke-width="3" stroke-linecap="round" stroke-linejoin="round" stroke-miterlimit="10" width="20" height="20"/>
</g>
<g>
	
		<rect x="145.781" y="617.41" fill="none" stroke="#DBE2E4" stroke-width="3" stroke-linecap="round" stroke-linejoin="round" stroke-miterlimit="10" width="20" height="20"/>
	
		<rect x="171.781" y="617.41" fill="none" stroke="#DBE2E4" stroke-width="3" stroke-linecap="round" stroke-linejoin="round" stroke-miterlimit="10" width="20" height="20"/>
	
		<rect x="145.781" y="643.41" fill="none" stroke="#DBE2E4" stroke-width="3" stroke-linecap="round" stroke-linejoin="round" stroke-miterlimit="10" width="20" height="20"/>
	
		<rect x="171.781" y="643.41" fill="none" stroke="#DBE2E4" stroke-width="3" stroke-linecap="round" stroke-linejoin="round" stroke-miterlimit="10" width="20" height="20"/>
</g>
<g>
	
		<rect x="235.396" y="912.722" fill="none" stroke="#DBE2E4" stroke-width="3" stroke-linecap="round" stroke-linejoin="round" stroke-miterlimit="10" width="20" height="20"/>
	
		<rect x="261.396" y="912.722" fill="none" stroke="#DBE2E4" stroke-width="3" stroke-linecap="round" stroke-linejoin="round" stroke-miterlimit="10" width="20" height="20"/>
	
		<rect x="235.396" y="938.722" fill="none" stroke="#DBE2E4" stroke-width="3" stroke-linecap="round" stroke-linejoin="round" stroke-miterlimit="10" width="20" height="20"/>
	
		<rect x="261.396" y="938.722" fill="none" stroke="#DBE2E4" stroke-width="3" stroke-linecap="round" stroke-linejoin="round" stroke-miterlimit="10" width="20" height="20"/>
</g>
<g>
	
		<rect x="236.904" y="424.875" fill="none" stroke="#DBE2E4" stroke-width="3" stroke-linecap="round" stroke-linejoin="round" stroke-miterlimit="10" width="20" height="20"/>
	
		<rect x="262.904" y="424.875" fill="none" stroke="#DBE2E4" stroke-width="3" stroke-linecap="round" stroke-linejoin="round" stroke-miterlimit="10" width="20" height="20"/>
	
		<rect x="236.904" y="450.875" fill="none" stroke="#DBE2E4" stroke-width="3" stroke-linecap="round" stroke-linejoin="round" stroke-miterlimit="10" width="20" height="20"/>
	
		<rect x="262.904" y="450.875" fill="none" stroke="#DBE2E4" stroke-width="3" stroke-linecap="round" stroke-linejoin="round" stroke-miterlimit="10" width="20" height="20"/>
</g>
<g>
	
		<circle fill="none" stroke="#DBE2E4" stroke-width="3" stroke-linejoin="round" stroke-miterlimit="10" cx="60.315" cy="783.281" r="8"/>
	
		<circle fill="none" stroke="#DBE2E4" stroke-width="3" stroke-linejoin="round" stroke-miterlimit="10" cx="90.315" cy="783.281" r="8"/>
	
		<circle fill="none" stroke="#DBE2E4" stroke-width="3" stroke-linejoin="round" stroke-miterlimit="10" cx="75.315" cy="753.282" r="8"/>
	
		<line fill="none" stroke="#DBE2E4" stroke-width="3" stroke-linejoin="round" stroke-miterlimit="10" x1="68.315" y1="783.281" x2="82.315" y2="783.281"/>
	
		<line fill="none" stroke="#DBE2E4" stroke-width="3" stroke-linejoin="round" stroke-miterlimit="10" x1="79.315" y1="760.281" x2="87.143" y2="775.936"/>
	
		<line fill="none" stroke="#DBE2E4" stroke-width="3" stroke-linejoin="round" stroke-miterlimit="10" x1="71.315" y1="760.281" x2="63.489" y2="775.936"/>
</g>
<g>
	
		<circle fill="none" stroke="#DBE2E4" stroke-width="3" stroke-linejoin="round" stroke-miterlimit="10" cx="245.396" cy="530.717" r="8"/>
	
		<circle fill="none" stroke="#DBE2E4" stroke-width="3" stroke-linejoin="round" stroke-miterlimit="10" cx="275.396" cy="530.717" r="8"/>
	
		<circle fill="none" stroke="#DBE2E4" stroke-width="3" stroke-linejoin="round" stroke-miterlimit="10" cx="260.396" cy="500.718" r="8"/>
	
		<line fill="none" stroke="#DBE2E4" stroke-width="3" stroke-linejoin="round" stroke-miterlimit="10" x1="253.396" y1="530.717" x2="267.396" y2="530.717"/>
	
		<line fill="none" stroke="#DBE2E4" stroke-width="3" stroke-linejoin="round" stroke-miterlimit="10" x1="264.396" y1="507.717" x2="272.225" y2="523.371"/>
	
		<line fill="none" stroke="#DBE2E4" stroke-width="3" stroke-linejoin="round" stroke-miterlimit="10" x1="256.396" y1="507.717" x2="248.57" y2="523.371"/>
</g>
<g>
	
		<circle fill="none" stroke="#DBE2E4" stroke-width="3" stroke-linejoin="round" stroke-miterlimit="10" cx="245.402" cy="45.665" r="8"/>
	
		<circle fill="none" stroke="#DBE2E4" stroke-width="3" stroke-linejoin="round" stroke-miterlimit="10" cx="275.402" cy="45.665" r="8"/>
	
		<circle fill="none" stroke="#DBE2E4" stroke-width="3" stroke-linejoin="round" stroke-miterlimit="10" cx="260.402" cy="15.666" r="8"/>
	
		<line fill="none" stroke="#DBE2E4" stroke-width="3" stroke-linejoin="round" stroke-miterlimit="10" x1="253.402" y1="45.665" x2="267.402" y2="45.665"/>
	
		<line fill="none" stroke="#DBE2E4" stroke-width="3" stroke-linejoin="round" stroke-miterlimit="10" x1="264.402" y1="22.665" x2="272.23" y2="38.319"/>
	
		<line fill="none" stroke="#DBE2E4" stroke-width="3" stroke-linejoin="round" stroke-miterlimit="10" x1="256.402" y1="22.665" x2="248.576" y2="38.319"/>
</g>
</svg>
