<?xml version="1.0" encoding="utf-8"?>
<!-- Generator: Adobe Illustrator 16.0.0, SVG Export Plug-In . SVG Version: 6.00 Build 0)  -->
<!DOCTYPE svg PUBLIC "-//W3C//DTD SVG 1.1//EN" "http://www.w3.org/Graphics/SVG/1.1/DTD/svg11.dtd">
<svg version="1.1" id="Layer_1" xmlns="http://www.w3.org/2000/svg" xmlns:xlink="http://www.w3.org/1999/xlink" x="0px" y="0px"
	 width="96px" height="96px" viewBox="0 0 96 96" enable-background="new 0 0 96 96" xml:space="preserve">
<g id="GearBot">
	<g>
		<path fill="#D5E053" d="M58.709,22.903c-0.326-0.152-0.495-0.208-0.83-0.286c0.182-0.286,0.259-0.445,0.37-0.79
			c-0.238-0.388-0.391-0.576-0.768-0.924c-0.394,0.008-0.587,0.032-0.948,0.111c-0.049-0.367-0.095-0.557-0.22-0.93
			c-0.456-0.235-0.684-0.313-1.132-0.405c-0.286,0.224-0.407,0.35-0.613,0.618c-0.189-0.289-0.299-0.427-0.555-0.681
			c-0.423,0.042-0.628,0.092-1.017,0.24c-0.116,0.341-0.155,0.513-0.197,0.85c-0.286-0.159-0.444-0.225-0.777-0.323
			c-0.338,0.242-0.495,0.384-0.771,0.696c0.054,0.351,0.098,0.519,0.214,0.829c-0.331-0.002-0.503,0.014-0.852,0.084
			c-0.199,0.366-0.28,0.562-0.391,0.961c0.207,0.28,0.322,0.406,0.568,0.622c-0.303,0.153-0.45,0.249-0.731,0.475
			c-0.004,0.415,0.018,0.626,0.124,1.039c0.326,0.151,0.494,0.208,0.827,0.286c-0.18,0.285-0.256,0.444-0.368,0.789
			c0.239,0.388,0.391,0.576,0.768,0.924c0.394-0.009,0.586-0.033,0.948-0.112c0.049,0.368,0.093,0.557,0.22,0.93
			c0.456,0.235,0.684,0.313,1.131,0.406c0.285-0.224,0.408-0.351,0.614-0.619c0.188,0.289,0.3,0.427,0.553,0.681
			c0.423-0.042,0.63-0.092,1.019-0.241c0.116-0.34,0.155-0.513,0.195-0.848c0.288,0.157,0.446,0.224,0.779,0.322
			c0.338-0.242,0.493-0.384,0.771-0.696c-0.055-0.352-0.1-0.519-0.214-0.83c0.331,0.002,0.503-0.013,0.853-0.083
			c0.198-0.367,0.277-0.562,0.39-0.962c-0.206-0.28-0.322-0.405-0.568-0.622c0.301-0.153,0.45-0.249,0.729-0.475
			C58.836,23.525,58.814,23.314,58.709,22.903z M55.991,21.787c0.505,0.353,0.848,0.847,1.021,1.391l-0.806,0.142
			c-0.273-0.715-0.961-1.197-1.729-1.208l-0.143-0.806C54.906,21.281,55.488,21.435,55.991,21.787z M52.236,22.449
			c0.354-0.504,0.849-0.847,1.392-1.02l0.142,0.806c-0.715,0.273-1.197,0.96-1.209,1.727l-0.806,0.142
			C51.731,23.535,51.885,22.952,52.236,22.449z M52.898,26.205c-0.502-0.354-0.846-0.849-1.019-1.392l0.806-0.142
			c0.273,0.717,0.961,1.197,1.727,1.209l0.143,0.806C53.985,26.709,53.402,26.557,52.898,26.205z M56.653,25.543
			c-0.352,0.502-0.847,0.845-1.392,1.019l-0.142-0.806c0.718-0.274,1.199-0.96,1.211-1.727l0.806-0.142
			C57.16,24.456,57.007,25.039,56.653,25.543z"/>
		<path fill="#D5E053" d="M45.689,16.141c-0.434-0.076-0.651-0.09-1.071-0.076c0.122-0.396,0.164-0.607,0.187-1.051
			c-0.407-0.384-0.645-0.558-1.201-0.85c-0.463,0.135-0.684,0.223-1.087,0.433c-0.175-0.419-0.287-0.629-0.556-1.03
			c-0.613-0.133-0.908-0.155-1.466-0.121c-0.269,0.355-0.373,0.543-0.532,0.926c-0.314-0.282-0.489-0.41-0.871-0.632
			c-0.487,0.184-0.715,0.309-1.127,0.607c-0.029,0.439-0.021,0.656,0.037,1.067c-0.391-0.095-0.598-0.125-1.024-0.135
			c-0.322,0.394-0.462,0.611-0.691,1.067c0.176,0.399,0.28,0.583,0.517,0.915c-0.394,0.103-0.592,0.176-0.983,0.369
			c-0.118,0.497-0.151,0.753-0.157,1.262c0.334,0.266,0.511,0.377,0.872,0.555c-0.309,0.277-0.455,0.438-0.715,0.794
			c0.125,0.494,0.218,0.736,0.474,1.19c0.434,0.076,0.651,0.09,1.072,0.077c-0.123,0.395-0.164,0.607-0.188,1.051
			c0.406,0.382,0.646,0.557,1.202,0.85c0.463-0.136,0.684-0.225,1.087-0.434c0.175,0.419,0.287,0.629,0.555,1.03
			c0.613,0.134,0.908,0.154,1.467,0.122c0.268-0.355,0.372-0.545,0.531-0.927c0.313,0.281,0.489,0.41,0.871,0.63
			c0.487-0.183,0.715-0.308,1.127-0.606c0.029-0.441,0.021-0.656-0.037-1.067c0.391,0.096,0.598,0.124,1.023,0.135
			c0.323-0.394,0.463-0.612,0.691-1.068c-0.174-0.398-0.28-0.583-0.515-0.914c0.393-0.103,0.592-0.175,0.981-0.37
			c0.119-0.496,0.152-0.753,0.158-1.261c-0.334-0.267-0.51-0.378-0.871-0.556c0.308-0.277,0.454-0.438,0.714-0.794
			C46.038,16.837,45.946,16.595,45.689,16.141z M41.695,15.562l-0.582,1.6c-0.564-0.042-1.114,0.214-1.445,0.674l-1.599-0.583
			C38.757,15.938,40.247,15.244,41.695,15.562z M37.767,18.081l1.6,0.582c-0.043,0.565,0.214,1.115,0.674,1.445l-0.582,1.599
			C38.144,21.02,37.45,19.53,37.767,18.081z M40.287,22.008l0.582-1.599c0.564,0.043,1.115-0.214,1.445-0.674l1.599,0.582
			C43.225,21.632,41.736,22.327,40.287,22.008z M44.214,19.49l-1.6-0.583c0.043-0.565-0.214-1.115-0.674-1.445l0.582-1.599
			C43.838,16.551,44.533,18.041,44.214,19.49z"/>
		<g>
			<path fill="#57B7DF" d="M28.804,28.342c-0.578,0-1.152,0.142-1.659,0.411c-1.17,0.619-1.896,1.823-1.896,3.145
				c0,1.531,0.976,2.885,2.43,3.371l0.52,0.173v-3.149h1.212v3.149l0.52-0.173c1.453-0.486,2.43-1.84,2.43-3.371
				C32.359,29.937,30.765,28.342,28.804,28.342z"/>
			<g>
				<path fill="#57B7DF" d="M29.831,30.36h-2.054v-6.953c0-4.804,3.268-5.451,6.463-5.451v2.054c-3.378,0-4.409,0.794-4.409,3.397
					V30.36z"/>
			</g>
		</g>
		<g>
			<path fill="#57B7DF" d="M65.953,28.752c-0.508-0.269-1.082-0.411-1.658-0.411c-1.961,0-3.557,1.595-3.557,3.555
				c0,1.531,0.977,2.885,2.43,3.371l0.52,0.173v-3.149H64.9v3.149l0.52-0.173c1.453-0.486,2.43-1.84,2.43-3.371
				C67.85,30.576,67.123,29.371,65.953,28.752z"/>
			<g>
				<path fill="#57B7DF" d="M65.32,30.36h-2.055v-6.953c0-2.603-1.029-3.397-4.408-3.397v-2.054c3.195,0,6.463,0.647,6.463,5.451
					V30.36z"/>
			</g>
		</g>
		<g>
			<g>
				<g>
					<path fill="#57B7DF" d="M37.275,47.436c0.029-2.273,1.88-4.108,4.161-4.108c2.281,0,4.132,1.835,4.16,4.108H37.275z"/>
				</g>
			</g>
			<g>
				<rect x="40.409" y="30.916" fill="#57B7DF" width="2.054" height="13.986"/>
			</g>
		</g>
		<g>
			<g>
				<g>
					<path fill="#57B7DF" d="M47.501,47.436c0.029-2.273,1.879-4.108,4.161-4.108c2.279,0,4.131,1.835,4.16,4.108H47.501z"/>
				</g>
			</g>
			<g>
				<rect x="50.635" y="30.916" fill="#57B7DF" width="2.055" height="13.986"/>
			</g>
		</g>
		<polygon fill="#57B7DF" points="52.572,3.922 40.561,3.922 38.98,12.028 54.152,12.028 		"/>
		<path fill="#D5E053" d="M52.484,14.103L50.9,13.242l-0.886,1.105l-0.934-1.009l-1.484,0.852l0.402,1.313l-1.402,0.208
			l-0.057,1.801l1.44,0.473l-0.319,1.481l1.583,0.861l0.889-1.105l0.932,1.01l1.484-0.852l-0.402-1.313l1.402-0.208l0.056-1.801
			l-1.439-0.473L52.484,14.103z M50.681,17.845c-0.585,0.335-1.333,0.134-1.668-0.452c-0.335-0.585-0.134-1.331,0.452-1.667
			c0.585-0.336,1.333-0.134,1.668,0.451S51.267,17.509,50.681,17.845z"/>
		<path fill="#D5E053" d="M50.027,22.834l-0.129-1.112l-0.881-0.056l0.182-0.835l-0.965-0.45l-0.525,0.675l-0.607-0.638
			l-0.936,0.617l0.275,0.9l-0.867,0.369l0.129,1.113l0.88,0.055l-0.18,0.835l0.965,0.449l0.524-0.675L48.5,24.72l0.936-0.616
			l-0.275-0.901L50.027,22.834z M47.48,23.257c-0.38-0.177-0.545-0.628-0.367-1.009c0.178-0.38,0.629-0.544,1.008-0.367
			c0.381,0.177,0.545,0.629,0.367,1.009S47.859,23.435,47.48,23.257z"/>
		<path fill="#57B7DF" d="M54.117,12.028H38.98c-2.618,0-4.74,2.122-4.74,4.74v17.862c0,2.618,2.122,4.74,4.74,4.74h15.137
			c2.619,0,4.74-2.122,4.74-4.74V16.769C58.857,14.15,56.736,12.028,54.117,12.028z M55.697,34.631c0,0.871-0.709,1.581-1.58,1.581
			H38.98c-0.871,0-1.58-0.709-1.58-1.581v-3.715h18.297V34.631z M55.697,24.993H37.4v-8.14c0-0.871,0.709-1.58,1.58-1.58h15.137
			c0.871,0,1.58,0.709,1.58,1.58V24.993z"/>
	</g>
	<g>
		<rect x="49.074" y="8.973" fill="#FFFFFF" width="0.953" height="3.056"/>
		<rect x="46.15" y="8.973" fill="#FFFFFF" width="0.953" height="3.056"/>
	</g>
</g>
<g id="GearBot_1_">
	<g>
		<path fill="#D5E053" d="M58.18,67.314c-0.289-0.201-0.441-0.285-0.75-0.418c0.223-0.244,0.322-0.384,0.49-0.697
			c-0.166-0.414-0.279-0.621-0.582-1.021c-0.381-0.059-0.572-0.068-0.934-0.053c0.016-0.363,0.004-0.553-0.055-0.934
			c-0.398-0.305-0.605-0.418-1.021-0.583c-0.312,0.167-0.453,0.269-0.697,0.491c-0.131-0.31-0.215-0.462-0.416-0.75
			c-0.416-0.032-0.623-0.019-1.021,0.058c-0.17,0.31-0.236,0.468-0.334,0.785c-0.25-0.2-0.391-0.291-0.695-0.443
			c-0.367,0.176-0.541,0.286-0.861,0.54c-0.008,0.348,0.006,0.517,0.066,0.836c-0.32-0.059-0.49-0.072-0.836-0.064
			c-0.254,0.319-0.365,0.494-0.541,0.86c0.152,0.305,0.242,0.444,0.443,0.696c-0.316,0.096-0.477,0.162-0.785,0.333
			c-0.076,0.399-0.09,0.606-0.059,1.021c0.289,0.201,0.441,0.285,0.75,0.418c-0.223,0.244-0.324,0.384-0.49,0.697
			c0.164,0.415,0.277,0.621,0.582,1.021c0.381,0.058,0.572,0.068,0.936,0.053c-0.018,0.363-0.006,0.553,0.053,0.934
			c0.398,0.305,0.605,0.418,1.02,0.584c0.314-0.168,0.453-0.27,0.699-0.492c0.131,0.311,0.215,0.462,0.416,0.752
			c0.414,0.031,0.621,0.016,1.021-0.061c0.17-0.309,0.236-0.467,0.334-0.784c0.25,0.2,0.391,0.292,0.695,0.443
			c0.365-0.176,0.541-0.286,0.859-0.54c0.01-0.348-0.004-0.516-0.062-0.836c0.318,0.059,0.486,0.073,0.836,0.064
			c0.252-0.319,0.363-0.494,0.539-0.859c-0.152-0.306-0.242-0.447-0.443-0.697c0.316-0.096,0.477-0.162,0.783-0.333
			C58.197,67.936,58.211,67.729,58.18,67.314z M55.75,65.777c0.426,0.426,0.674,0.961,0.748,1.514h-0.801
			c-0.143-0.736-0.723-1.316-1.459-1.459v-0.801C54.791,65.105,55.326,65.352,55.75,65.777z M52.02,65.777
			c0.426-0.426,0.961-0.672,1.514-0.746v0.801c-0.736,0.143-1.316,0.721-1.459,1.459h-0.801
			C51.348,66.738,51.596,66.203,52.02,65.777z M52.02,69.509c-0.424-0.426-0.672-0.96-0.746-1.515h0.801
			c0.143,0.736,0.723,1.316,1.459,1.459v0.801C52.98,70.18,52.445,69.934,52.02,69.509z M55.75,69.509
			c-0.424,0.425-0.959,0.671-1.512,0.745v-0.801c0.736-0.143,1.316-0.723,1.459-1.459h0.801
			C56.424,68.549,56.176,69.083,55.75,69.509z"/>
		<path fill="#D5E053" d="M45.979,62.142c-0.353-0.246-0.54-0.349-0.919-0.511c0.272-0.299,0.396-0.471,0.601-0.855
			c-0.203-0.508-0.342-0.761-0.715-1.25c-0.467-0.071-0.699-0.084-1.143-0.064c0.019-0.445,0.006-0.678-0.065-1.145
			c-0.49-0.372-0.742-0.512-1.251-0.714c-0.384,0.204-0.555,0.328-0.854,0.601c-0.162-0.379-0.265-0.566-0.511-0.92
			c-0.508-0.039-0.762-0.021-1.25,0.072c-0.209,0.379-0.291,0.574-0.409,0.963c-0.307-0.246-0.479-0.357-0.852-0.544
			c-0.449,0.216-0.663,0.351-1.055,0.661c-0.01,0.426,0.007,0.633,0.079,1.025c-0.391-0.073-0.597-0.09-1.023-0.08
			c-0.311,0.393-0.446,0.605-0.662,1.055c0.186,0.373,0.296,0.545,0.543,0.853c-0.388,0.118-0.583,0.2-0.961,0.407
			c-0.094,0.49-0.111,0.743-0.072,1.252c0.353,0.246,0.54,0.35,0.919,0.511c-0.272,0.299-0.397,0.471-0.602,0.854
			c0.203,0.509,0.342,0.762,0.715,1.251c0.466,0.071,0.699,0.085,1.143,0.065c-0.019,0.443-0.006,0.677,0.065,1.144
			c0.49,0.372,0.744,0.513,1.252,0.714c0.383-0.205,0.555-0.328,0.854-0.602c0.162,0.379,0.264,0.566,0.51,0.92
			c0.508,0.039,0.762,0.021,1.251-0.072c0.209-0.377,0.29-0.572,0.41-0.961c0.306,0.246,0.479,0.356,0.852,0.543
			c0.448-0.217,0.663-0.352,1.054-0.662c0.01-0.426-0.007-0.633-0.079-1.023c0.391,0.072,0.598,0.089,1.024,0.079
			c0.311-0.392,0.446-0.606,0.661-1.055c-0.186-0.373-0.297-0.546-0.543-0.853c0.388-0.117,0.583-0.199,0.961-0.408
			C46,62.904,46.019,62.65,45.979,62.142z M42.676,59.977l-1.178,1.179c-0.483-0.271-1.077-0.271-1.56,0l-1.177-1.179
			C39.915,59.096,41.523,59.096,42.676,59.977z M38.151,60.586l1.178,1.178c-0.271,0.484-0.271,1.077,0,1.561l-1.178,1.178
			C37.27,63.349,37.27,61.74,38.151,60.586z M38.762,65.111l1.177-1.178c0.483,0.271,1.077,0.271,1.56,0l1.178,1.178
			C41.523,65.993,39.915,65.993,38.762,65.111z M43.286,64.502l-1.178-1.178c0.271-0.483,0.271-1.076,0-1.56l1.178-1.178
			C44.167,61.74,44.167,63.35,43.286,64.502z"/>
		<g>
			<path fill="#57B7DF" d="M28.794,71.896c-0.565,0-1.127,0.14-1.625,0.401c-1.144,0.605-1.855,1.785-1.855,3.078
				c0,1.497,0.956,2.822,2.378,3.299l0.508,0.17v-3.082h1.186v3.082l0.509-0.17c1.422-0.477,2.377-1.802,2.377-3.299
				C32.272,73.457,30.712,71.896,28.794,71.896z"/>
			<g>
				<path fill="#57B7DF" d="M29.799,73.871h-2.01v-6.803c0-4.702,3.196-5.336,6.324-5.336v2.01c-3.307,0-4.314,0.777-4.314,3.326
					V73.871z"/>
			</g>
		</g>
		<g>
			<path fill="#57B7DF" d="M65.146,72.297c-0.498-0.262-1.059-0.401-1.625-0.401c-1.918,0-3.479,1.562-3.479,3.479
				c0,1.497,0.955,2.822,2.377,3.299l0.51,0.17v-3.082h1.186v3.082l0.508-0.17c1.422-0.477,2.379-1.802,2.379-3.299
				C67.002,74.082,66.289,72.902,65.146,72.297z"/>
			<g>
				<path fill="#57B7DF" d="M64.527,73.871h-2.01v-6.803c0-2.549-1.008-3.326-4.316-3.326v-2.01c3.129,0,6.326,0.634,6.326,5.336
					V73.871z"/>
			</g>
		</g>
		<g>
			<g>
				<g>
					<path fill="#57B7DF" d="M37.083,90.58c0.029-2.225,1.84-4.021,4.072-4.021c2.23,0,4.043,1.797,4.07,4.021H37.083z"/>
				</g>
			</g>
			<g>
				<rect x="40.149" y="74.414" fill="#57B7DF" width="2.011" height="13.686"/>
			</g>
		</g>
		<g>
			<g>
				<g>
					<path fill="#57B7DF" d="M47.09,90.58c0.028-2.225,1.84-4.021,4.07-4.021c2.232,0,4.043,1.797,4.072,4.021H47.09z"/>
				</g>
			</g>
			<g>
				<rect x="50.156" y="74.414" fill="#57B7DF" width="2.01" height="13.686"/>
			</g>
		</g>
		<polygon fill="#57B7DF" points="52.051,48 40.298,48 38.751,55.932 53.598,55.932 		"/>
		<path fill="#D5E053" d="M52.387,58.412l-1.379-1.1l-1.045,0.915l-0.727-1.132l-1.573,0.568l0.164,1.335l-1.388-0.038l-0.359,1.727
			l1.307,0.7l-0.559,1.374l1.379,1.1l1.043-0.916l0.725,1.132l1.578-0.568l-0.164-1.335l1.387,0.039l0.359-1.727l-1.309-0.7
			L52.387,58.412z M50.014,61.711c-0.623,0.225-1.308-0.098-1.531-0.719c-0.224-0.621,0.098-1.306,0.718-1.529
			c0.621-0.225,1.307,0.098,1.531,0.718C50.955,60.802,50.635,61.486,50.014,61.711z"/>
		<path fill="#D5E053" d="M49.561,66.506l-0.125-1.088l-0.862-0.055l0.177-0.817l-0.943-0.439l-0.514,0.659L46.7,64.142
			l-0.915,0.604l0.269,0.882l-0.849,0.36l0.126,1.089l0.86,0.054l-0.176,0.817l0.943,0.439l0.513-0.66l0.594,0.625l0.917-0.604
			l-0.271-0.882L49.561,66.506z M47.07,66.92c-0.374-0.173-0.533-0.615-0.359-0.987c0.173-0.372,0.615-0.532,0.986-0.359
			c0.373,0.173,0.534,0.616,0.359,0.987C47.883,66.933,47.441,67.094,47.07,66.92z"/>
		<path fill="#57B7DF" d="M53.564,55.932H38.751c-2.562,0-4.638,2.077-4.638,4.639V78.05c0,2.562,2.077,4.64,4.638,4.64h14.813
			c2.561,0,4.637-2.077,4.637-4.64V60.57C58.201,58.009,56.125,55.932,53.564,55.932z M55.109,78.05
			c0,0.853-0.693,1.546-1.545,1.546H38.751c-0.853,0-1.545-0.693-1.545-1.546v-3.636h17.903V78.05z M55.109,68.617H37.206v-7.964
			c0-0.853,0.693-1.547,1.545-1.547h14.813c0.852,0,1.545,0.694,1.545,1.547V68.617z"/>
	</g>
	<g>
		<rect x="42.639" y="52.942" fill="#FFFFFF" width="0.933" height="2.989"/>
		<rect x="45.768" y="52.942" fill="#FFFFFF" width="0.933" height="2.989"/>
	</g>
</g>
</svg>
