<?xml version="1.0" encoding="utf-8"?>
<!-- Generator: Adobe Illustrator 16.0.0, SVG Export Plug-In . SVG Version: 6.00 Build 0)  -->
<!DOCTYPE svg PUBLIC "-//W3C//DTD SVG 1.1//EN" "http://www.w3.org/Graphics/SVG/1.1/DTD/svg11.dtd">
<svg version="1.1" id="Layer_1" xmlns="http://www.w3.org/2000/svg" xmlns:xlink="http://www.w3.org/1999/xlink" x="0px" y="0px"
	 width="96px" height="96px" viewBox="0 0 96 96" enable-background="new 0 0 96 96" xml:space="preserve">
<g id="Robot">
	<g>
		<g>
			<path fill="#57B7DF" d="M35.935,26.87c-0.562,0-1.12,0.139-1.614,0.399c-1.138,0.602-1.844,1.773-1.844,3.059
				c0,1.488,0.949,2.806,2.363,3.278l0.506,0.169v-3.063h1.178v3.063l0.506-0.169c1.413-0.473,2.363-1.79,2.363-3.278
				C39.393,28.42,37.841,26.87,35.935,26.87z"/>
			<g>
				<path fill="#57B7DF" d="M36.934,28.833h-1.998v-6.762c0-4.672,3.178-5.302,6.286-5.302v1.997c-3.286,0-4.288,0.772-4.288,3.305
					V28.833z"/>
			</g>
		</g>
		<g>
			<path fill="#57B7DF" d="M65.16,1.929L64.654,1.76v3.063h-1.178V1.76l-0.506,0.169c-1.414,0.473-2.363,1.79-2.363,3.278
				c0,1.907,1.551,3.458,3.457,3.458c0.562,0,1.121-0.138,1.615-0.399c1.137-0.602,1.844-1.773,1.844-3.059
				C67.523,3.719,66.574,2.402,65.16,1.929z"/>
			<g>
				<path fill="#57B7DF" d="M58.777,18.766v-1.997c3.287,0,4.289-0.772,4.289-3.305V6.703h1.998v6.762
					C65.064,18.136,61.887,18.766,58.777,18.766z"/>
			</g>
		</g>
		<rect x="40.568" y="14.616" fill="#57B7DF" width="18.209" height="18.21"/>
		<circle fill="#57B7DF" cx="49.673" cy="14.616" r="6.479"/>
		<g>
			<circle fill="#D5E053" cx="49.673" cy="4.141" r="1.768"/>
		</g>
		<g>
			<path fill="#57B7DF" d="M48.649,46.25c-0.028-2.211-1.828-3.996-4.046-3.996c-2.219,0-4.019,1.785-4.046,3.996H48.649z"/>
			<g>
				<rect x="43.604" y="32.826" fill="#57B7DF" width="1.998" height="11.887"/>
			</g>
		</g>
		<g>
			<path fill="#57B7DF" d="M58.586,46.25c-0.029-2.211-1.828-3.996-4.047-3.996s-4.018,1.785-4.045,3.996H58.586z"/>
			<g>
				<rect x="53.541" y="32.826" fill="#57B7DF" width="1.996" height="11.887"/>
			</g>
		</g>
	</g>
	<g>
		<rect x="49.673" y="11.671" fill="#FFFFFF" width="1.025" height="2.92"/>
		<rect x="52.645" y="11.671" fill="#FFFFFF" width="1.025" height="2.92"/>
	</g>
	<polygon fill="#D5E053" points="51.941,23.797 50.389,23.396 51.512,19.683 47.458,23.861 49.012,24.262 47.888,27.975 	"/>
</g>
<g id="Robot_1_">
	<g>
		<g>
			<path fill="#57B7DF" d="M61.789,74.771c0.562,0,1.121,0.139,1.615,0.399c1.137,0.603,1.844,1.772,1.844,3.06
				c0,1.487-0.949,2.805-2.363,3.276l-0.506,0.17v-3.063h-1.178v3.063l-0.506-0.17c-1.414-0.473-2.363-1.789-2.363-3.276
				C58.332,76.32,59.883,74.771,61.789,74.771z"/>
			<g>
				<path fill="#57B7DF" d="M60.791,76.732h1.998v-6.762c0-4.672-3.178-5.301-6.287-5.301v1.996c3.287,0,4.289,0.773,4.289,3.305
					V76.732z"/>
			</g>
		</g>
		<g>
			<path fill="#57B7DF" d="M32.564,49.831l0.506-0.17v3.063h1.178v-3.063l0.506,0.17c1.414,0.474,2.363,1.789,2.363,3.276
				c0,1.908-1.551,3.459-3.457,3.459c-0.562,0-1.121-0.139-1.615-0.399c-1.137-0.603-1.844-1.772-1.844-3.06
				C30.201,51.62,31.15,50.305,32.564,49.831z"/>
			<g>
				<path fill="#57B7DF" d="M38.947,66.667v-1.996c-3.287,0-4.289-0.772-4.289-3.305v-6.763H32.66v6.763
					C32.66,66.038,35.838,66.667,38.947,66.667z"/>
			</g>
		</g>
		<rect x="38.947" y="62.518" fill="#57B7DF" width="18.209" height="18.211"/>
		<circle fill="#57B7DF" cx="48.052" cy="62.517" r="6.479"/>
		<g>
			<circle fill="#D5E053" cx="48.051" cy="52.042" r="1.769"/>
		</g>
		<g>
			<path fill="#57B7DF" d="M49.076,94.15c0.027-2.211,1.828-3.996,4.045-3.996c2.219,0,4.02,1.785,4.047,3.996H49.076z"/>
			<g>
				<rect x="52.123" y="80.729" fill="#57B7DF" width="1.998" height="11.887"/>
			</g>
		</g>
		<g>
			<path fill="#57B7DF" d="M39.139,94.15c0.029-2.211,1.828-3.996,4.047-3.996c2.219,0,4.018,1.785,4.045,3.996H39.139z"/>
			<g>
				<rect x="42.188" y="80.729" fill="#57B7DF" width="1.996" height="11.887"/>
			</g>
		</g>
	</g>
	<g>
		<rect x="47.025" y="59.573" fill="#FFFFFF" width="1.026" height="2.92"/>
		<rect x="44.055" y="59.573" fill="#FFFFFF" width="1.025" height="2.92"/>
	</g>
	<polygon fill="#D5E053" points="45.783,71.698 47.336,71.298 46.213,67.585 50.266,71.764 48.712,72.163 49.836,75.876 	"/>
</g>
</svg>
