<?xml version="1.0" encoding="utf-8"?>
<!-- Generator: Adobe Illustrator 16.0.0, SVG Export Plug-In . SVG Version: 6.00 Build 0)  -->
<!DOCTYPE svg PUBLIC "-//W3C//DTD SVG 1.1//EN" "http://www.w3.org/Graphics/SVG/1.1/DTD/svg11.dtd">
<svg version="1.1" id="Layer_1" xmlns="http://www.w3.org/2000/svg" xmlns:xlink="http://www.w3.org/1999/xlink" x="0px" y="0px"
	 width="334px" height="364.352px" viewBox="0 0 334 364.352" enable-background="new 0 0 334 364.352" xml:space="preserve">
<g>
	<g>
		<path fill="#D5E052" d="M72.686,90.799c0,0-35.038,32.154-1.421,96.116l35.784-40.312l27.229,70.773l51.19-19.982l41.195,39.429
			l8.758-12.847l-44.002-46.6l-49.261,16.866l-23.366-77.004l-40.67,30.818C78.123,148.058,63.305,130.247,72.686,90.799z"/>
		<polygon fill="#D5E052" points="243.158,222.26 265.084,214.967 247.953,229.674 277.316,221.961 251.699,233.596 271.07,234.6 
			254.223,236.897 272.908,253.164 246.398,241.656 250.334,272.711 240.186,250.473 237.277,267.229 237.277,242.447 
			222.674,273.553 228.775,246.344 204.283,256.971 222.949,241.305 206.105,243.731 226.664,236.823 191.434,233.619 
			226.76,232.971 212.387,211.151 235.422,223.977 228.16,202.25 235.547,217.576 239.283,192.994 240.756,217.662 246.969,207.768 
					"/>
	</g>
</g>
</svg>
