<?xml version="1.0" encoding="utf-8"?>
<!-- Generator: Adobe Illustrator 16.0.0, SVG Export Plug-In . SVG Version: 6.00 Build 0)  -->
<!DOCTYPE svg PUBLIC "-//W3C//DTD SVG 1.1//EN" "http://www.w3.org/Graphics/SVG/1.1/DTD/svg11.dtd">
<svg version="1.1" id="Layer_1" xmlns="http://www.w3.org/2000/svg" xmlns:xlink="http://www.w3.org/1999/xlink" x="0px" y="0px"
	 width="75.131px" height="96.292px" viewBox="13.395 2.447 75.131 96.292" enable-background="new 13.395 2.447 75.131 96.292"
	 xml:space="preserve">
<ellipse fill="#CAE1DD" cx="49.186" cy="95.178" rx="35.791" ry="3.561"/>
<g>
	<g>
		<polyline fill="#D5E053" points="50.666,11.095 52.086,11.095 52.086,17.243 50.666,17.243 		"/>
	</g>
	<g id="Robot">
		<g>
			<g>
				<path fill="#57B7DF" d="M22.687,54.783c-1.171,0-2.334,0.289-3.365,0.832c-2.371,1.254-3.843,3.695-3.843,6.375
					c0,3.102,1.978,5.85,4.925,6.832l1.055,0.354v-6.385h2.455v6.385l1.055-0.354c2.945-0.986,4.926-3.73,4.926-6.832
					C29.895,58.014,26.659,54.783,22.687,54.783z"/>
				<g>
					<path fill="#57B7DF" d="M24.769,58.875h-4.165V44.781c0-9.738,6.624-11.05,13.102-11.05v4.162
						c-6.849,0-8.938,1.609-8.938,6.888L24.769,58.875L24.769,58.875z"/>
				</g>
			</g>
			<g>
				<path fill="#57B7DF" d="M83.6,2.8l-1.055-0.353v6.385h-2.453V2.447L79.037,2.8c-2.947,0.985-4.926,3.73-4.926,6.832
					c0,3.975,3.23,7.208,7.205,7.208c1.17,0,2.336-0.288,3.367-0.832c2.367-1.255,3.842-3.695,3.842-6.376
					C88.525,6.53,86.547,3.785,83.6,2.8z"/>
				<g>
					<path fill="#57B7DF" d="M70.297,37.893V33.73c6.852,0,8.939-1.609,8.939-6.889V12.75H83.4v14.093
						C83.4,36.579,76.777,37.893,70.297,37.893z"/>
				</g>
			</g>
			<rect x="32.343" y="29.243" fill="#57B7DF" width="37.954" height="37.954"/>
			<circle fill="#57B7DF" cx="51.32" cy="29.243" r="13.504"/>
			<g>
				<circle fill="#D5E053" cx="51.32" cy="7.41" r="3.685"/>
			</g>
			<g>
				<path fill="#57B7DF" d="M49.186,95.178c-0.057-4.609-3.81-8.33-8.432-8.33c-4.626,0-8.377,3.721-8.433,8.33H49.186z"/>
				<g>
					<rect x="38.671" y="67.197" fill="#57B7DF" width="4.164" height="24.775"/>
				</g>
			</g>
			<g>
				<path fill="#57B7DF" d="M69.898,95.178c-0.062-4.609-3.812-8.33-8.438-8.33s-8.373,3.721-8.434,8.33H69.898z"/>
				<g>
					<rect x="59.383" y="67.197" fill="#57B7DF" width="4.16" height="24.775"/>
				</g>
			</g>
		</g>
		<g>
			<rect x="51.32" y="23.104" fill="#FFFFFF" width="2.137" height="6.086"/>
			<rect x="57.514" y="23.104" fill="#FFFFFF" width="2.137" height="6.086"/>
		</g>
		<polygon fill="#D5E053" points="56.049,48.378 52.811,47.542 55.152,39.804 46.704,48.512 49.943,49.348 47.6,57.086 		"/>
	</g>
</g>
</svg>
