<?xml version="1.0" encoding="utf-8"?>
<!-- Generator: Adobe Illustrator 16.0.0, SVG Export Plug-In . SVG Version: 6.00 Build 0)  -->
<!DOCTYPE svg PUBLIC "-//W3C//DTD SVG 1.1//EN" "http://www.w3.org/Graphics/SVG/1.1/DTD/svg11.dtd">
<svg version="1.1" id="Layer_1" xmlns="http://www.w3.org/2000/svg" xmlns:xlink="http://www.w3.org/1999/xlink" x="0px" y="0px"
	 width="96px" height="96px" viewBox="0 0 96 96" enable-background="new 0 0 96 96" xml:space="preserve">
<g>
	<path fill="#A9BCB8" d="M7.974,8.689c0,0-14.869,13.646-0.603,40.79l15.186-17.108l11.556,30.036l21.724-8.48L73.32,70.659
		l3.717-5.451L58.363,45.432l-20.906,7.157l-9.916-32.678L10.281,32.99C10.281,32.99,3.993,25.43,7.974,8.689z"/>
	<polygon fill="#A9BCB8" points="80.32,64.479 89.625,61.384 82.355,67.626 94.816,64.353 83.945,69.29 92.166,69.716 85.016,70.69 
		92.945,77.595 81.695,72.71 83.365,85.89 79.059,76.452 77.824,83.563 77.824,73.046 71.627,86.247 74.217,74.7 63.822,79.21 
		71.744,72.562 64.596,73.591 73.32,70.659 58.369,69.3 73.361,69.024 67.262,59.765 77.037,65.208 73.955,55.987 77.09,62.491 
		78.676,52.06 79.301,62.528 81.938,58.329 	"/>
</g>
</svg>
