<?xml version="1.0" encoding="utf-8"?>
<!-- Generator: Adobe Illustrator 16.0.0, SVG Export Plug-In . SVG Version: 6.00 Build 0)  -->
<!DOCTYPE svg PUBLIC "-//W3C//DTD SVG 1.1//EN" "http://www.w3.org/Graphics/SVG/1.1/DTD/svg11.dtd">
<svg version="1.1" id="Layer_1" xmlns="http://www.w3.org/2000/svg" xmlns:xlink="http://www.w3.org/1999/xlink" x="0px" y="0px"
	 width="267.447px" height="316.362px" viewBox="0 0 267.447 316.362" enable-background="new 0 0 267.447 316.362"
	 xml:space="preserve">
<path fill="#CAE1DD" d="M133.721,296.033c56.438,0,102.187,4.553,102.187,10.166s-45.748,10.164-102.187,10.164
	c-56.433,0-102.181-4.551-102.181-10.164S77.289,296.033,133.721,296.033z"/>
<g id="ErrorBot">
	<g>
		<path fill="#57B7DF" d="M173.97,118.362V63.096c0-4.435-3.091-8.029-6.9-8.029H97.918c-3.812,0-6.899,3.595-6.899,8.029v55.266
			H173.97z"/>
		<g>
			<g>
				<rect x="238.296" y="162.545" fill="#57B7DF" width="13" height="46.197"/>
			</g>
			<g>
				
					<rect x="198.559" y="141.57" transform="matrix(-0.8738 -0.4863 0.4863 -0.8738 351.9801 387.4893)" fill="#57B7DF" width="55.428" height="13"/>
			</g>
			<path fill="#57B7DF" d="M255.452,198.366c-3.215-1.701-6.848-2.6-10.505-2.6c-12.406,0-22.5,10.093-22.5,22.5
				c0,9.688,6.179,18.259,15.375,21.331l3.292,1.101v-19.932h7.666v19.932l3.292-1.101c9.196-3.072,15.375-11.646,15.375-21.331
				C267.447,209.902,262.851,202.277,255.452,198.366z"/>
			<path fill="#57B7DF" d="M244.796,144.755c-7.52,0-13.637,6.117-13.637,13.637c0,7.519,6.117,13.636,13.637,13.636
				c7.521,0,13.638-6.117,13.638-13.636C258.433,150.872,252.315,144.755,244.796,144.755z"/>
		</g>
		<g>
			<g>
				<rect x="16.151" y="162.545" fill="#57B7DF" width="13" height="46.197"/>
			</g>
			<g>
				
					<rect x="34.684" y="120.358" transform="matrix(-0.4863 -0.8738 0.8738 -0.4863 -68.1701 256.0675)" fill="#57B7DF" width="13" height="55.428"/>
			</g>
			<path fill="#57B7DF" d="M22.5,195.767c-3.657,0-7.29,0.897-10.505,2.599C4.597,202.277,0,209.902,0,218.267
				c0,9.687,6.18,18.259,15.375,21.331l3.292,1.1v-19.931h7.666v19.931l3.292-1.1C38.821,236.525,45,227.954,45,218.267
				C45,205.859,34.906,195.767,22.5,195.767z"/>
			<path fill="#57B7DF" d="M22.651,144.755c-7.521,0-13.637,6.117-13.637,13.637c0,7.519,6.116,13.636,13.637,13.636
				c7.52,0,13.637-6.117,13.637-13.636C36.288,150.872,30.171,144.755,22.651,144.755z"/>
		</g>
		<polygon fill="#57B7DF" points="187.724,229.999 133.724,229.999 79.724,229.999 59.724,157.833 59.724,117.666 133.724,117.666 
			207.724,117.666 207.724,157.833 		"/>
		<g>
			<rect x="81.352" y="71.257" fill="#D5E053" width="9.666" height="26"/>
		</g>
		<g>
			<rect x="173.97" y="71.257" fill="#D5E053" width="9.666" height="26"/>
		</g>
		<g>
			<g>
				<g>
					<path fill="#57B7DF" d="M72.539,306.198c0.183-14.391,11.896-26,26.328-26c14.432,0,26.146,11.609,26.326,26H72.539z"/>
				</g>
			</g>
			<g>
				<rect x="92.366" y="229.999" fill="#57B7DF" width="13" height="60.166"/>
			</g>
		</g>
		<g>
			<g>
				<g>
					<path fill="#57B7DF" d="M142.254,306.198c0.183-14.391,11.896-26,26.328-26s26.146,11.609,26.326,26H142.254z"/>
				</g>
			</g>
			<g>
				<rect x="162.081" y="229.999" fill="#57B7DF" width="13" height="60.166"/>
			</g>
		</g>
		<g>
			<path fill="#D5E053" d="M133.725,0c-6.343,0-11.502,5.159-11.502,11.501s5.159,11.501,11.502,11.501
				c6.341,0,11.5-5.159,11.5-11.501S140.065,0,133.725,0z"/>
			<g>
				<path fill="#D5E053" d="M136.724,55.067h-6v-6.988c0-1.657,1.343-3,3-3h14.693c0.709,0,1.286-0.577,1.286-1.286
					s-0.577-1.286-1.286-1.286h-29.389c-4.018,0-7.286-3.269-7.286-7.286c0-4.017,3.27-7.286,7.286-7.286h11.694V11.501h6v19.434
					c0,1.657-1.344,3-3,3h-14.694c-0.709,0-1.286,0.577-1.286,1.286s0.577,1.286,1.286,1.286h29.389
					c4.019,0,7.286,3.269,7.286,7.286s-3.269,7.286-7.286,7.286h-11.693V55.067z"/>
			</g>
		</g>
	</g>
	<g>
		<g>
			<circle fill="#FFFFFF" cx="114.494" cy="78.804" r="8.034"/>
		</g>
		<g>
			<circle fill="#FFFFFF" cx="150.494" cy="78.804" r="5.701"/>
		</g>
	</g>
</g>
<polygon fill="#D5E053" points="142.254,171.823 132.149,169.211 139.461,145.049 113.087,172.233 123.193,174.844 115.88,199.006 
	"/>
</svg>
