<?xml version="1.0" encoding="utf-8"?>
<!-- Generator: Adobe Illustrator 16.0.0, SVG Export Plug-In . SVG Version: 6.00 Build 0)  -->
<!DOCTYPE svg PUBLIC "-//W3C//DTD SVG 1.1//EN" "http://www.w3.org/Graphics/SVG/1.1/DTD/svg11.dtd">
<svg version="1.1" id="Layer_1" xmlns="http://www.w3.org/2000/svg" xmlns:xlink="http://www.w3.org/1999/xlink" x="0px" y="0px"
	 width="334px" height="364.354px" viewBox="0 -0.002 334 364.354" enable-background="new 0 -0.002 334 364.354"
	 xml:space="preserve">
<g>
	<g>
		<path fill="#D5E052" d="M72.686,90.799c0,0-35.038,32.154-1.421,96.116l35.784-40.312l27.229,70.773l51.19-19.982l41.195,39.43
			l8.758-12.848l-44.002-46.6l-49.261,16.866l-23.366-77.004l-40.67,30.817C78.123,148.058,63.305,130.247,72.686,90.799z"/>
		<polygon fill="#D5E052" points="243.158,222.26 265.084,214.967 247.953,229.674 277.316,221.961 251.699,233.596 271.07,234.6 
			254.223,236.897 272.908,253.164 246.398,241.656 250.334,272.711 240.186,250.473 237.277,267.229 237.277,242.448 
			222.674,273.553 228.775,246.344 204.283,256.971 222.949,241.305 206.105,243.731 226.664,236.823 191.434,233.619 
			226.76,232.971 212.387,211.151 235.422,223.977 228.16,202.25 235.547,217.576 239.283,192.994 240.756,217.662 246.969,207.768 
					"/>
	</g>
</g>
<g>
	<g>
		<g>
			<path fill="#2E769D" d="M307.617,72.873c0,0-126.846-72.875-140.215-72.875c-13.366,0-140.524,72.873-140.524,72.873
				S0,86.116,0,112.612c0,15.851,0,40.8,0,66.139c0,2.283,0,4.567,0,6.851c0,25.339,0,50.288,0,66.14
				c0,26.494,26.967,39.738,26.967,39.738s127.135,72.873,140.501,72.873c13.37,0,140.093-72.875,140.093-72.875
				S334,278.236,334,251.737c0-15.849,0-40.79,0-66.128c0-2.286,0-4.576,0-6.863c0-25.337,0-50.28,0-66.128
				C334,86.115,307.617,72.873,307.617,72.873z M317,169.55v25.249v56.938c0,14.395-15.789,23.171-16.955,23.799l-0.87,0.267
				l-0.198,0.212c-0.295,0.166-29.641,17.028-61.15,34.266c-48.04,26.273-64.76,33.646-70.275,35.709
				c-5.516-2.062-22.318-9.438-70.359-35.707c-31.511-17.234-60.982-34.099-61.274-34.265l-0.744-0.351l-0.646-0.133
				c-1.233-0.67-17.524-9.438-17.524-23.798v-56.944v-25.235v-56.944c0-14.359,16.293-23.127,17.526-23.798l0.608-0.133l0.768-0.351
				c0.292-0.166,29.781-17.029,61.292-34.266c48.04-26.27,64.864-33.644,70.38-35.706c5.518,2.062,22.27,9.436,70.311,35.71
				c31.512,17.235,60.922,34.099,61.215,34.265l0.323,0.212l0.621,0.267c1.166,0.628,16.955,9.404,16.955,23.8v56.938H317z"/>
		</g>
	</g>
</g>
</svg>
