<?xml version="1.0" encoding="utf-8"?>
<!-- Generator: Adobe Illustrator 16.0.0, SVG Export Plug-In . SVG Version: 6.00 Build 0)  -->
<!DOCTYPE svg PUBLIC "-//W3C//DTD SVG 1.1//EN" "http://www.w3.org/Graphics/SVG/1.1/DTD/svg11.dtd">
<svg version="1.1" id="Layer_1" xmlns="http://www.w3.org/2000/svg" xmlns:xlink="http://www.w3.org/1999/xlink" x="0px" y="0px"
	 width="96px" height="96px" viewBox="0 0 96 96" enable-background="new 0 0 96 96" xml:space="preserve">
<g>
	<path fill="#82AF3B" d="M7.974,7.689c0,0-14.869,13.646-0.603,40.79l15.186-17.108l11.556,30.036l21.724-8.48L73.32,69.659
		l3.717-5.451L58.363,44.432l-20.906,7.157l-9.916-32.678L10.281,31.99C10.281,31.99,3.993,24.43,7.974,7.689z"/>
	<polygon fill="#82AF3B" points="80.32,63.479 89.625,60.384 82.355,66.626 94.816,63.353 83.945,68.29 92.166,68.716 85.016,69.69 
		92.945,76.595 81.695,71.71 83.365,84.89 79.059,75.452 77.824,82.563 77.824,72.046 71.627,85.247 74.217,73.7 63.822,78.21 
		71.744,71.562 64.596,72.591 73.32,69.659 58.369,68.3 73.361,68.024 67.262,58.765 77.037,64.208 73.955,54.987 77.09,61.491 
		78.676,51.06 79.301,61.528 81.938,57.329 	"/>
</g>
</svg>
